<svg width="117" height="35" viewBox="0 0 117 35" fill="none" xmlns="http://www.w3.org/2000/svg">
<g clip-path="url(#clip0_222_47)">
<path fill-rule="evenodd" clip-rule="evenodd" d="M72.6326 27.371C65.9159 32.3457 56.1806 34.9999 47.7986 34.9999C36.0458 34.9999 25.4652 30.6319 17.4606 23.367C16.8317 22.7957 17.3952 22.0171 18.1499 22.462C26.7884 27.5126 37.4696 30.551 48.503 30.551C55.9441 30.551 64.1299 29.004 71.6565 25.7937C72.7936 25.3083 73.7445 26.5419 72.6326 27.371Z" fill="#2D2D2D"/>
<path fill-rule="evenodd" clip-rule="evenodd" d="M75.4244 24.1608C74.5691 23.0587 69.7492 23.64 67.5858 23.8979C66.9267 23.9788 66.8261 23.4024 67.4198 22.9879C71.2586 20.273 77.5576 21.0566 78.2922 21.9666C79.0267 22.8817 78.101 29.2265 74.4936 32.2548C73.9402 32.7199 73.4119 32.4722 73.6584 31.8554C74.4685 29.823 76.2847 25.268 75.4244 24.1608Z" fill="#2D2D2D"/>
<path fill-rule="evenodd" clip-rule="evenodd" d="M67.737 3.82224V1.18321C67.737 0.783816 68.0388 0.515869 68.4011 0.515869H80.1589C80.5363 0.515869 80.8381 0.788872 80.8381 1.18321V3.44307C80.8331 3.82224 80.5162 4.31769 79.9527 5.1013L73.8599 13.8425C76.1239 13.7868 78.5137 14.1256 80.5665 15.2884C81.0293 15.5512 81.1551 15.9355 81.1903 16.3146V19.1306C81.1903 19.5148 80.7677 19.9648 80.325 19.7322C76.7075 17.8263 71.9028 17.619 67.903 19.7525C67.4955 19.9749 67.0678 19.53 67.0678 19.1458V16.4714C67.0678 16.0416 67.0728 15.3086 67.5005 14.6564L74.5592 4.48452H68.4162C68.0388 4.48452 67.737 4.21658 67.737 3.82224Z" fill="#2D2D2D"/>
<path fill-rule="evenodd" clip-rule="evenodd" d="M24.8456 20.2882H21.2685C20.9264 20.2629 20.6547 20.0051 20.6295 19.6765V1.22857C20.6295 0.859512 20.9364 0.566285 21.3188 0.566285H24.6545C25.0016 0.581441 25.2783 0.849398 25.3035 1.18307V3.5946H25.3689C26.2393 1.26396 27.8744 0.177002 30.0781 0.177002C32.317 0.177002 33.7156 1.26396 34.7219 3.5946C35.5872 1.26396 37.5544 0.177002 39.6625 0.177002C41.1618 0.177002 42.8019 0.798842 43.8032 2.19419C44.9352 3.74626 44.7037 6.00106 44.7037 7.97781L44.6987 19.6209C44.6987 19.9899 44.3918 20.2882 44.0094 20.2882H40.4373C40.0801 20.2629 39.7933 19.9748 39.7933 19.6209V9.84332C39.7933 9.06476 39.8637 7.12341 39.6927 6.38529C39.426 5.14667 38.6261 4.79783 37.5896 4.79783C36.7243 4.79783 35.8187 5.37922 35.4514 6.30946C35.0841 7.23969 35.1193 8.79681 35.1193 9.84332V19.6209C35.1193 19.9899 34.8124 20.2882 34.4301 20.2882H30.8579C30.4957 20.2629 30.2139 19.9748 30.2139 19.6209L30.2089 9.84332C30.2089 7.78569 30.546 4.75738 28.0052 4.75738C25.4343 4.75738 25.5349 7.70986 25.5349 9.84332V19.6209C25.5349 19.9899 25.228 20.2882 24.8457 20.2882" fill="#2D2D2D"/>
<path fill-rule="evenodd" clip-rule="evenodd" d="M90.9611 0.177002C96.269 0.177002 99.1418 4.75738 99.1418 10.5814C99.1418 16.2083 95.9671 20.6724 90.9611 20.6724C85.7488 20.6724 82.9112 16.0921 82.9112 10.3843C82.9112 4.6411 85.784 0.177002 90.9611 0.177002ZM90.9913 3.94343C88.3549 3.94343 88.1889 7.55314 88.1889 9.80288C88.1889 12.0577 88.1537 16.8706 90.9611 16.8706C93.7332 16.8706 93.8641 12.9879 93.8641 10.6219C93.8641 9.06476 93.7987 7.2043 93.3308 5.72806C92.9283 4.44394 92.1283 3.94343 90.9913 3.94343Z" fill="#2D2D2D"/>
<path fill-rule="evenodd" clip-rule="evenodd" d="M106.024 20.2882H102.462C102.105 20.2629 101.818 19.9748 101.818 19.6209L101.813 1.1679C101.843 0.829175 102.14 0.566285 102.502 0.566285H105.818C106.13 0.581441 106.386 0.793787 106.457 1.08196V3.90298H106.522C107.523 1.38024 108.927 0.177002 111.397 0.177002C113.002 0.177002 114.567 0.758398 115.573 2.35091C116.509 3.82715 116.509 6.30946 116.509 8.09408V19.7068C116.469 20.0304 116.172 20.2882 115.82 20.2882H112.233C111.905 20.2629 111.634 20.0203 111.599 19.7068V9.6866C111.599 7.66941 111.83 4.71694 109.36 4.71694C108.489 4.71694 107.689 5.30339 107.292 6.19317C106.789 7.32058 106.723 8.44292 106.723 9.6866V19.6209C106.718 19.9899 106.406 20.2882 106.024 20.2882" fill="#2D2D2D"/>
<path fill-rule="evenodd" clip-rule="evenodd" d="M58.3639 11.4762C58.3639 12.8766 58.3992 14.0445 57.6948 15.2882C57.1263 16.2993 56.2207 16.9211 55.2195 16.9211C53.8459 16.9211 53.041 15.8696 53.041 14.3175C53.041 11.2538 55.7729 10.6977 58.3639 10.6977V11.4762ZM61.9713 20.2376C61.7348 20.4499 61.3927 20.4651 61.1261 20.3235C59.9387 19.3326 59.7224 18.8726 59.0733 17.9272C57.1112 19.9393 55.7175 20.5409 53.1768 20.5409C50.1631 20.5409 47.8236 18.6754 47.8236 14.9393C47.8236 12.0222 49.3933 10.0354 51.6373 9.06471C53.5793 8.20525 56.2911 8.05359 58.3639 7.81597V7.35086C58.3639 6.49646 58.4294 5.48533 57.9262 4.74722C57.4936 4.08493 56.6584 3.81193 55.9188 3.81193C54.5553 3.81193 53.3428 4.51466 53.046 5.97067C52.9856 6.29423 52.7491 6.61274 52.4221 6.6279L48.9556 6.25379C48.6638 6.18807 48.3368 5.95045 48.4223 5.5005C49.2172 1.27402 53.0208 0 56.4219 0C58.1627 0 60.4368 0.465117 61.8103 1.78969C63.5511 3.42265 63.3851 5.60161 63.3851 7.9727V13.5743C63.3851 15.2578 64.0794 15.9959 64.7334 16.906C64.9598 17.2295 65.0102 17.6188 64.7183 17.8615C63.9888 18.4732 62.6908 19.6107 61.9763 20.2477L61.9713 20.2376" fill="#2D2D2D"/>
<path fill-rule="evenodd" clip-rule="evenodd" d="M11.4681 11.4765C11.4681 12.8769 11.5033 14.0447 10.7989 15.2884C10.2304 16.2995 9.32981 16.9214 8.32357 16.9214C6.95006 16.9214 6.1501 15.8698 6.1501 14.3177C6.1501 11.254 8.88204 10.6979 11.4681 10.6979V11.4765ZM15.0754 20.2378C14.839 20.4502 14.4968 20.4653 14.2302 20.3238C13.0428 19.3329 12.8315 18.8728 12.1775 17.9274C10.2153 19.9396 8.82669 20.5412 6.28091 20.5412C3.27226 20.5412 0.927734 18.6757 0.927734 14.9396C0.927734 12.0225 2.50249 10.0356 4.74137 9.06495C6.68341 8.20549 9.39522 8.05383 11.4681 7.81622V7.3511C11.4681 6.4967 11.5335 5.48558 11.0354 4.74746C10.5977 4.08518 9.76249 3.81217 9.02794 3.81217C7.66449 3.81217 6.44694 4.5149 6.1501 5.97092C6.08973 6.29448 5.85326 6.61298 5.53127 6.62815L2.05975 6.25403C1.76794 6.18831 1.44595 5.95069 1.52644 5.50075C2.3264 1.27426 6.12495 0.000244141 9.52603 0.000244141C11.2668 0.000244141 13.5409 0.465361 14.9144 1.78993C16.6552 3.42289 16.4892 5.60186 16.4892 7.97294V13.5746C16.4892 15.2581 17.1835 15.9962 17.8375 16.9062C18.069 17.2298 18.1193 17.619 17.8275 17.8617C17.098 18.4734 15.7999 19.6109 15.0855 20.248L15.0754 20.2378" fill="#2D2D2D"/>
</g>
<defs>
<clipPath id="clip0_222_47">
<rect width="115.581" height="35" fill="white" transform="translate(0.927734)"/>
</clipPath>
</defs>
</svg>
