<svg width="107" height="35" viewBox="0 0 107 35" fill="none" xmlns="http://www.w3.org/2000/svg">
<path d="M46.0098 18.4189C46.0098 23.4544 42.0705 27.1649 37.2361 27.1649C32.4018 27.1649 28.4625 23.4544 28.4625 18.4189C28.4625 13.3479 32.4018 9.67285 37.2361 9.67285C42.0705 9.67285 46.0098 13.3479 46.0098 18.4189ZM42.1691 18.4189C42.1691 15.2722 39.886 13.1192 37.2361 13.1192C34.5863 13.1192 32.3032 15.2722 32.3032 18.4189C32.3032 21.534 34.5863 23.7186 37.2361 23.7186C39.886 23.7186 42.1691 21.5301 42.1691 18.4189Z" fill="#2D2D2D"/>
<path d="M64.9372 18.4189C64.9372 23.4544 60.9979 27.1649 56.1636 27.1649C51.3292 27.1649 47.3899 23.4544 47.3899 18.4189C47.3899 13.3519 51.3292 9.67285 56.1636 9.67285C60.9979 9.67285 64.9372 13.3479 64.9372 18.4189ZM61.0965 18.4189C61.0965 15.2722 58.8134 13.1192 56.1636 13.1192C53.5137 13.1192 51.2306 15.2722 51.2306 18.4189C51.2306 21.534 53.5137 23.7186 56.1636 23.7186C58.8134 23.7186 61.0965 21.5301 61.0965 18.4189Z" fill="#2D2D2D"/>
<path d="M83.0759 10.2012V25.9031C83.0759 32.3621 79.2668 35.0001 74.7637 35.0001C70.5247 35.0001 67.9735 32.1649 67.0113 29.8463L70.3552 28.4544C70.9506 29.8779 72.4096 31.5577 74.7597 31.5577C77.6422 31.5577 79.4285 29.7793 79.4285 26.4315V25.1736H79.2944C78.4348 26.2343 76.7786 27.161 74.6887 27.161C70.3157 27.161 66.3094 23.3519 66.3094 18.4504C66.3094 13.5135 70.3157 9.67285 74.6887 9.67285C76.7747 9.67285 78.4308 10.5995 79.2944 11.6287H79.4285V10.2052H83.0759V10.2012ZM79.7006 18.4504C79.7006 15.3708 77.6462 13.1192 75.0318 13.1192C72.382 13.1192 70.1619 15.3708 70.1619 18.4504C70.1619 21.4985 72.382 23.7186 75.0318 23.7186C77.6462 23.7186 79.7006 21.4985 79.7006 18.4504Z" fill="#2D2D2D"/>
<path d="M89.0894 0.997559V26.6285H85.3433V0.997559H89.0894Z" fill="#2D2D2D"/>
<path d="M103.687 21.2972L106.668 23.2846C105.706 24.7081 103.387 27.1608 99.3812 27.1608C94.4127 27.1608 90.7021 23.3201 90.7021 18.4147C90.7021 13.2137 94.4442 9.6687 98.9513 9.6687C103.49 9.6687 105.71 13.2807 106.436 15.2326L106.834 16.2263L95.1422 21.0685C96.0373 22.8233 97.4293 23.7184 99.3812 23.7184C101.337 23.7184 102.693 22.7562 103.687 21.2972ZM94.5113 18.1506L102.327 14.9053C101.897 13.813 100.604 13.052 99.0815 13.052C97.1296 13.052 94.4127 14.7752 94.5113 18.1506Z" fill="#2D2D2D"/>
<path d="M14.2827 16.1435V12.433H26.7866C26.9088 13.0796 26.9719 13.8446 26.9719 14.6727C26.9719 17.4566 26.2109 20.899 23.7582 23.3517C21.3726 25.8359 18.3245 27.1609 14.2866 27.1609C6.8024 27.1609 0.509033 21.0646 0.509033 13.5804C0.509033 6.09621 6.8024 0 14.2866 0C18.427 0 21.3765 1.6246 23.5926 3.74211L20.9743 6.3604C19.3852 4.86987 17.2322 3.71056 14.2827 3.71056C8.81738 3.71056 4.54294 8.11513 4.54294 13.5804C4.54294 19.0457 8.81738 23.4503 14.2827 23.4503C17.8276 23.4503 19.8465 22.0268 21.1399 20.7334C22.1888 19.6845 22.8789 18.1861 23.151 16.1396L14.2827 16.1435Z" fill="#2D2D2D"/>
</svg>
