<svg width="114" height="28" viewBox="0 0 114 28" fill="none" xmlns="http://www.w3.org/2000/svg">
<path d="M10.2502 26.4231C8.5685 26.4491 6.89994 26.1231 5.35164 25.4662C3.94773 24.8638 2.71749 23.9186 1.77372 22.7172C0.818293 21.4753 0.206562 20.0038 0 18.4505L4.81729 17.7374C5.15727 19.1407 5.85891 20.2209 6.92219 20.978C7.98003 21.735 9.25229 22.1337 10.5529 22.1158C11.3023 22.1168 12.0468 21.996 12.7574 21.7582C13.419 21.5539 14.0222 21.1944 14.5169 20.7099C14.7418 20.4855 14.9188 20.2179 15.0372 19.9231C15.1556 19.6283 15.2129 19.3126 15.2057 18.9951C15.2089 18.7502 15.1746 18.5063 15.1041 18.2717C15.0265 18.0327 14.903 17.8112 14.7404 17.6196C14.5308 17.3901 14.2834 17.1984 14.009 17.0527C13.6357 16.8454 13.2404 16.6805 12.8305 16.561L6.48536 14.6837C5.92464 14.5195 5.37264 14.327 4.83151 14.1066C4.1726 13.8426 3.5564 13.4824 3.00293 13.0379C2.38551 12.5387 1.88482 11.9104 1.53601 11.1972C1.14862 10.4359 0.954925 9.4756 0.954925 8.31614C0.954925 6.67584 1.36737 5.31253 2.19226 4.22622C3.0425 3.11797 4.18936 2.27332 5.49996 1.79014C6.96425 1.24252 8.51846 0.9751 10.0816 1.00182C11.628 0.999548 13.1603 1.29621 14.5941 1.87548C15.8803 2.40365 17.0209 3.2328 17.9201 4.29327C18.8491 5.42291 19.5104 6.74824 19.8543 8.16986L14.8664 9.0171C14.7096 8.27514 14.3647 7.58597 13.8647 7.01582C13.3852 6.4781 12.7907 6.0552 12.1255 5.77848C11.4594 5.49749 10.7472 5.34182 10.0247 5.3193C9.33032 5.29285 8.63696 5.39338 7.9787 5.61594C7.38961 5.80674 6.85463 6.13553 6.41832 6.57493C6.22234 6.77067 6.06746 7.00361 5.96279 7.26006C5.85812 7.51651 5.80576 7.7913 5.80879 8.06827C5.799 8.30664 5.83751 8.54453 5.92201 8.76764C6.0065 8.99075 6.13524 9.19447 6.30047 9.36656C6.65266 9.71965 7.07388 9.99632 7.53781 10.1793C8.03537 10.3826 8.54576 10.5529 9.06569 10.6892L13.306 11.8433C13.9399 12.0126 14.6415 12.2354 15.4109 12.5117C16.1957 12.798 16.9396 13.186 17.6234 13.6658C18.3433 14.1716 18.9404 14.8326 19.3708 15.6C19.8286 16.4046 20.0575 17.4204 20.0575 18.6476C20.0888 19.8439 19.8087 21.0278 19.2448 22.0833C18.7046 23.0527 17.9465 23.8832 17.0302 24.5092C16.0708 25.1638 15.0063 25.6489 13.883 25.9437C12.6986 26.2634 11.477 26.4246 10.2502 26.4231Z" fill="#141414"/>
<path d="M28.0301 26.4231C26.7176 26.4231 25.6062 26.1719 24.696 25.6694C23.8255 25.2085 23.1055 24.5076 22.6216 23.6498C22.1479 22.7971 21.9049 21.8355 21.9165 20.8602C21.9068 20.0683 22.0389 19.2811 22.3066 18.5359C22.5736 17.8242 23.0069 17.1868 23.5704 16.6768C24.2586 16.0788 25.0572 15.6211 25.9211 15.3297C26.7123 15.0495 27.5232 14.8281 28.3471 14.6674C29.2857 14.4751 30.349 14.2915 31.5369 14.1168L35.4541 13.5316L33.7962 14.4459C33.7962 13.3623 33.5362 12.5652 33.016 12.0546C32.4959 11.5439 31.625 11.2893 30.4032 11.2906C29.6694 11.3035 28.9466 11.471 28.282 11.7823C27.9156 11.9481 27.5885 12.1898 27.3223 12.4914C27.0562 12.7929 26.857 13.1475 26.7379 13.5316L22.5647 12.2069C23.0101 10.7251 23.9285 9.42988 25.1795 8.5193C26.4568 7.57115 28.1987 7.09707 30.4052 7.09707C31.8759 7.07077 33.3382 7.3238 34.7146 7.84273C35.9475 8.32312 36.9602 9.24104 37.559 10.421C37.9052 11.0494 38.124 11.7398 38.2031 12.4528C38.2708 13.13 38.3047 13.8879 38.3047 14.7263V25.9233H34.2737V22.1483L34.8507 22.9285C33.9567 24.1584 32.9957 25.0497 31.9676 25.6023C30.9396 26.1549 29.6271 26.4285 28.0301 26.4231ZM29.0135 22.7944C29.7537 22.8143 30.4879 22.6568 31.1549 22.3352C31.6765 22.0803 32.1474 21.7326 32.5447 21.3092C32.8223 21.0202 33.0595 20.6948 33.2497 20.3421C33.4968 19.7942 33.6348 19.2035 33.656 18.6029C33.6967 17.9426 33.717 17.3839 33.717 16.9491L35.0742 17.2884C33.7143 17.5213 32.611 17.7137 31.7645 17.8654C30.9179 18.0171 30.2339 18.1525 29.7124 18.2717C29.2465 18.3807 28.7872 18.5164 28.3369 18.6781C27.9485 18.8245 27.581 19.0213 27.2438 19.2632C26.9921 19.444 26.7839 19.6786 26.6343 19.95C26.4997 20.2062 26.4299 20.4915 26.4311 20.7809C26.421 21.1646 26.5312 21.5418 26.746 21.8598C26.9698 22.1702 27.279 22.4088 27.6359 22.5465C28.0745 22.7186 28.5425 22.8028 29.0135 22.7944Z" fill="#141414"/>
<path d="M41.8399 25.9152V1.48535H46.4886V13.361H45.9116V25.9152H41.8399ZM50.865 26.4231C49.0445 26.4231 47.5234 25.9992 46.3017 25.1512C45.0685 24.2901 44.111 23.0906 43.5446 21.6973C42.9081 20.1303 42.5937 18.4512 42.6201 16.7601C42.5929 15.0697 42.9045 13.391 43.5365 11.8229C44.09 10.4396 45.025 9.24179 46.2326 8.36894C47.4218 7.51967 48.8867 7.09571 50.6273 7.09706C52.3678 7.09842 53.895 7.51628 55.2089 8.35065C56.5133 9.19036 57.5608 10.3736 58.2362 11.7701C58.9768 13.324 59.3454 15.0289 59.313 16.7499C59.3405 18.4548 58.9784 20.1434 58.2545 21.6871C57.5973 23.0849 56.5736 24.2786 55.2922 25.1411C53.9798 26.0074 52.4352 26.4545 50.863 26.4231H50.865ZM50.1193 22.319C51.1135 22.319 51.9262 22.0697 52.5574 21.5713C53.2093 21.0499 53.6979 20.3525 53.9655 19.5619C54.2801 18.6597 54.4348 17.7094 54.4226 16.754C54.4337 15.8026 54.2733 14.8569 53.9492 13.9624C53.6651 13.1641 53.1581 12.4639 52.4884 11.9448C51.8287 11.441 50.9835 11.189 49.9527 11.189C48.9924 11.189 48.2149 11.4213 47.6203 11.8859C46.9997 12.3894 46.5469 13.0696 46.322 13.8364C46.0358 14.7819 45.8987 15.7663 45.9156 16.754C45.8986 17.7417 46.0357 18.7261 46.322 19.6716C46.5511 20.4458 47.0173 21.1287 47.6548 21.6241C48.2684 22.0874 49.0899 22.319 50.1193 22.319Z" fill="#141414"/>
<path d="M59.8229 25.9151V25.3381L68.8135 11.5974H60.8408V7.59277H75.9388V8.16979L66.9828 21.9106H75.5995V25.9151H59.8229Z" fill="#141414"/>
<path d="M85.984 26.4234C84.1053 26.4234 82.4507 26.0171 81.0204 25.2044C79.6151 24.42 78.4531 23.2636 77.6619 21.8621C76.8334 20.3724 76.4129 18.6903 76.4428 16.9859C76.4428 14.984 76.8384 13.2421 77.6294 11.7603C78.3768 10.3254 79.5114 9.12879 80.9046 8.30627C82.3636 7.46826 84.0233 7.04333 85.7056 7.07706C87.6277 7.07706 89.2619 7.52946 90.6082 8.43427C91.9751 9.36598 93.0187 10.6993 93.5949 12.2499C94.2383 13.8889 94.4645 15.8177 94.2735 18.0363H89.7143V16.348C89.7143 14.4815 89.4176 13.1385 88.8244 12.319C88.2311 11.4995 87.2613 11.0891 85.9149 11.0877C84.3423 11.0877 83.1862 11.5659 82.4467 12.5222C81.7071 13.4784 81.338 14.8892 81.3394 16.7543C81.3394 18.4623 81.7098 19.783 82.4507 20.7162C83.1917 21.6495 84.28 22.1161 85.7158 22.1161C86.5322 22.1407 87.339 21.9351 88.0442 21.5228C88.6988 21.1155 89.2135 20.5179 89.5192 19.8101L94.1333 21.1327C93.4909 22.7497 92.3464 24.1178 90.8683 25.0357C89.4061 25.9552 87.7112 26.4367 85.984 26.4234ZM79.9171 18.0445V14.6149H92.065V18.0424L79.9171 18.0445Z" fill="#141414"/>
<path d="M97.248 25.9155V7.5931H101.311V12.063L100.871 11.488C101.099 10.8672 101.419 10.2838 101.819 9.75692C102.218 9.23793 102.715 8.80235 103.282 8.47488C103.733 8.19987 104.218 7.98601 104.725 7.83894C105.25 7.68609 105.79 7.58938 106.336 7.55043C106.891 7.51184 107.448 7.52612 108 7.5931V11.9025C107.424 11.7379 106.822 11.6835 106.226 11.7419C105.593 11.7815 104.973 11.9393 104.398 12.2072C103.881 12.4401 103.416 12.7753 103.032 13.1926C102.652 13.6153 102.364 14.1119 102.185 14.6514C101.985 15.2615 101.887 15.9008 101.897 16.543V25.9073L97.248 25.9155Z" fill="#141414"/>
</svg>
