<svg width="21" height="20" viewBox="0 0 21 20" fill="none" xmlns="http://www.w3.org/2000/svg">
<path d="M8.17422 16.7716C8.49194 16.7716 8.79665 16.6454 9.02131 16.4207C9.24597 16.1961 9.37219 15.8913 9.37219 15.5736V14.3757C9.37219 14.0579 9.24597 13.7532 9.02131 13.5286C8.79665 13.3039 8.49194 13.1777 8.17422 13.1777C5.77829 13.1777 5.77829 10.7818 5.77829 9.58379C5.77829 8.38583 5.77829 5.9899 8.17422 5.9899C8.49194 5.9899 8.79665 5.86368 9.02131 5.63902C9.24597 5.41436 9.37219 5.10965 9.37219 4.79193V3.59396C9.37219 3.27624 9.24597 2.97153 9.02131 2.74687C8.79665 2.52221 8.49194 2.396 8.17422 2.396C5.1793 2.396 3.38235 3.59396 3.38235 9.58379C3.38235 15.5736 5.1793 16.7716 8.17422 16.7716Z" stroke="#AAAAAA"/>
<path d="M15.1823 15.5736C16.7154 14.0389 17.5766 11.9583 17.5766 9.78895C17.5766 7.61963 16.7154 5.53903 15.1823 4.00427" stroke="#AAAAAA"/>
<path d="M12.8672 13.2586C13.323 12.803 13.6846 12.2621 13.9312 11.6668C14.1779 11.0714 14.3049 10.4334 14.3049 9.78895C14.3049 9.14454 14.1779 8.50645 13.9312 7.91112C13.6846 7.31579 13.323 6.7749 12.8672 6.31934" stroke="#AAAAAA"/>
<path d="M10.5702 10.9465C10.8769 10.6393 11.0491 10.223 11.0491 9.78894C11.0491 9.35488 10.8769 8.93856 10.5702 8.63141" stroke="#AAAAAA"/>
</svg>
