<svg width="105" height="113" viewBox="0 0 105 113" fill="none" xmlns="http://www.w3.org/2000/svg">
<path fill-rule="evenodd" clip-rule="evenodd" d="M17.5 28.25L0 0H105L87.5 28.25H105L87.5 56.5L105 84.75H87.5L105 113H0L17.5 84.75H0L17.5 56.5L0 28.25H17.5ZM51.3333 1.88333H3.375L19.7083 28.25H35L51.3333 1.88333ZM85.2917 28.25H70L53.6667 1.88333H101.625L85.2917 28.25ZM84.125 30.1333L77.6458 40.5926L71.1667 30.1333H84.125ZM78.75 42.375L86.3333 30.1333H101.625L86.3958 54.7176L78.75 42.375ZM76.5417 42.375L68.9583 30.1333H53.6667L68.8958 54.7176L76.5417 42.375ZM70 56.5L77.6458 44.1574L85.2917 56.5L77.6458 68.8426L70 56.5ZM67.7917 56.5L52.5 31.8149L37.2083 56.5L52.5 81.1851L67.7917 56.5ZM36.1042 54.7176L51.3333 30.1333H36.0417L28.4583 42.375L36.1042 54.7176ZM27.3542 44.1574L35 56.5L27.3542 68.8426L19.7083 56.5L27.3542 44.1574ZM26.25 42.375L18.6042 54.7176L3.375 30.1333H18.6667L26.25 42.375ZM27.3542 40.5926L20.875 30.1333H33.8333L27.3542 40.5926ZM36.1042 58.2824L51.3333 82.8667H36.0417L28.4583 70.625L36.1042 58.2824ZM53.6667 82.8667L68.8958 58.2824L76.5417 70.625L68.9583 82.8667H53.6667ZM37.2083 84.75L52.5 109.435L67.7917 84.75H37.2083ZM52.5 3.56488L67.7917 28.25H37.2083L52.5 3.56488ZM18.6042 58.2824L26.25 70.625L18.6667 82.8667H3.375L18.6042 58.2824ZM33.8333 82.8667L27.3542 72.4074L20.875 82.8667H33.8333ZM3.375 111.117L19.7083 84.75H35L51.3333 111.117H3.375ZM85.2917 84.75L101.625 111.117H53.6667L70 84.75H85.2917ZM77.6458 72.4074L84.125 82.8667H71.1667L77.6458 72.4074ZM86.3333 82.8667L78.75 70.625L86.3958 58.2824L101.625 82.8667H86.3333Z" fill="url(#paint0_radial_223_280)" fill-opacity="0.27"/>
<path d="M73 39H33C30.7909 39 29 40.7909 29 43V71C29 73.2091 30.7909 75 33 75H73C75.2091 75 77 73.2091 77 71V43C77 40.7909 75.2091 39 73 39Z" stroke="black"/>
<path d="M37 87H69" stroke="black"/>
<path d="M49 75L45 87" stroke="black"/>
<path d="M57 75L61 87" stroke="black"/>
<path d="M29 67H77" stroke="black"/>
<defs>
<radialGradient id="paint0_radial_223_280" cx="0" cy="0" r="1" gradientUnits="userSpaceOnUse" gradientTransform="translate(52.5 56.5) rotate(54.7251) scale(87.6623 81.6981)">
<stop stop-color="#494949"/>
<stop offset="1" stop-color="white" stop-opacity="0"/>
</radialGradient>
</defs>
</svg>
