<svg width="444" height="105" viewBox="0 0 444 105" fill="none" xmlns="http://www.w3.org/2000/svg">
<path d="M42.0998 104.418C35.1927 104.525 28.3396 103.186 21.9804 100.488C16.2142 98.0136 11.1613 94.1315 7.28506 89.1973C3.36091 84.0965 0.848394 78.0526 0 71.6731L19.7857 68.7441C21.182 74.5076 24.0638 78.9443 28.4309 82.0541C32.7757 85.1631 38.0011 86.8007 43.3432 86.7273C46.4209 86.7311 49.4787 86.2351 52.3974 85.2586C55.1148 84.4192 57.5924 82.9429 59.624 80.9526C60.5477 80.0312 61.2747 78.9319 61.7609 77.7213C62.2472 76.5106 62.4826 75.2139 62.4529 73.9096C62.4663 72.9038 62.3255 71.9019 62.0357 70.9388C61.7171 69.9571 61.2097 69.0471 60.542 68.2601C59.6813 67.3177 58.6652 66.5301 57.5378 65.9319C56.0047 65.0806 54.3813 64.4033 52.6978 63.9124L26.6368 56.2018C24.3338 55.5277 22.0666 54.7367 19.8441 53.8318C17.1378 52.7472 14.6069 51.2681 12.3337 49.4424C9.79779 47.3921 7.74135 44.8116 6.30871 41.882C4.71763 38.7554 3.92208 34.8111 3.92208 30.049C3.92208 23.3119 5.61609 17.7125 9.0041 13.2508C12.4962 8.69895 17.2066 5.22979 22.5895 3.24529C28.6037 0.996078 34.9871 -0.102271 41.4072 0.00748365C47.7587 -0.00185833 54.0521 1.21659 59.9411 3.59577C65.2237 5.7651 69.9084 9.17061 73.6017 13.5262C77.4175 18.1659 80.1335 23.6092 81.546 29.4481L61.0593 32.928C60.4156 29.8806 58.9989 27.05 56.9453 24.7083C54.9757 22.4997 52.5343 20.7628 49.8021 19.6262C47.0664 18.4722 44.1413 17.8328 41.1735 17.7403C38.3216 17.6317 35.4739 18.0445 32.7703 18.9587C30.3507 19.7423 28.1534 21.0927 26.3614 22.8974C25.5565 23.7014 24.9204 24.6581 24.4905 25.7114C24.0605 26.7647 23.8455 27.8933 23.858 29.0309C23.8177 30.01 23.9759 30.987 24.323 31.9034C24.67 32.8197 25.1987 33.6565 25.8774 34.3633C27.3239 35.8135 29.0539 36.9498 30.9594 37.7012C33.003 38.5363 35.0993 39.236 37.2348 39.7958L54.6505 44.5357C57.2541 45.2311 60.1358 46.1462 63.2958 47.2811C66.5192 48.4568 69.5745 50.0503 72.3833 52.021C75.3399 54.0986 77.7924 56.8135 79.5599 59.9653C81.4403 63.2699 82.3804 67.4423 82.3804 72.4826C82.5089 77.396 81.3586 82.2586 79.0425 86.5937C76.8239 90.5752 73.71 93.9862 69.9466 96.5575C66.0063 99.2458 61.6342 101.238 57.0204 102.449C52.1558 103.762 47.1385 104.424 42.0998 104.418Z" fill="#141414"/>
<path d="M115.126 104.418C109.735 104.418 105.17 103.386 101.432 101.322C97.8564 99.4297 94.8993 96.5509 92.9115 93.0276C90.9662 89.5253 89.9682 85.5761 90.0159 81.5701C89.9758 78.3178 90.5185 75.0846 91.6181 72.0236C92.7145 69.1009 94.4942 66.4828 96.8086 64.3881C99.6352 61.9318 102.915 60.0522 106.464 58.8554C109.713 57.7042 113.044 56.7949 116.427 56.135C120.283 55.345 124.65 54.5912 129.529 53.8735L145.618 51.4702L138.808 55.2254C138.808 50.7748 137.74 47.5009 135.604 45.4035C133.468 43.3062 129.89 42.2603 124.872 42.2658C121.859 42.3186 118.89 43.0067 116.16 44.2853C114.655 44.9664 113.312 45.959 112.219 47.1975C111.125 48.436 110.307 49.8923 109.818 51.4702L92.6779 46.0294C94.5073 39.9431 98.2794 34.6234 103.418 30.8835C108.664 26.9892 115.818 25.0421 124.881 25.0421C130.921 24.934 136.927 25.9733 142.58 28.1046C147.644 30.0777 151.803 33.8478 154.263 38.6942C155.685 41.275 156.584 44.1107 156.908 47.0391C157.186 49.8207 157.325 52.9334 157.325 56.377V102.366H140.769V86.8608L143.139 90.0652C139.467 95.1166 135.52 98.7772 131.298 101.047C127.075 103.317 121.685 104.441 115.126 104.418ZM119.164 89.5144C122.205 89.5959 125.22 88.9493 127.96 87.6285C130.102 86.5814 132.036 85.1534 133.668 83.4143C134.808 82.2273 135.782 80.891 136.563 79.4422C137.578 77.1921 138.145 74.7658 138.232 72.299C138.399 69.5869 138.483 67.2921 138.483 65.5063L144.057 66.8999C138.472 67.8568 133.94 68.6467 130.463 69.2698C126.986 69.8929 124.177 70.4492 122.035 70.9388C120.122 71.3865 118.235 71.9438 116.386 72.6078C114.791 73.2093 113.281 74.0173 111.896 75.0111C110.862 75.7535 110.007 76.7171 109.393 77.8316C108.84 78.8841 108.553 80.0559 108.558 81.2447C108.517 82.8204 108.969 84.3697 109.852 85.6758C110.771 86.9505 112.041 87.9305 113.507 88.4964C115.308 89.203 117.23 89.5489 119.164 89.5144Z" fill="#141414"/>
<path d="M171.845 102.332V1.99341H190.938V50.7691H188.568V102.332H171.845ZM208.913 104.418C201.436 104.418 195.189 102.677 190.171 99.1943C185.106 95.6576 181.173 90.7306 178.847 85.0081C176.233 78.5722 174.941 71.6758 175.05 64.7301C174.938 57.7873 176.218 50.8924 178.813 44.4521C181.087 38.7703 184.927 33.8508 189.887 30.2658C194.771 26.7776 200.788 25.0363 207.937 25.0419C215.086 25.0475 221.358 26.7637 226.754 30.1907C232.112 33.6395 236.414 38.4992 239.188 44.2351C242.23 50.6172 243.744 57.6197 243.611 64.6883C243.724 71.6905 242.237 78.6259 239.263 84.9663C236.564 90.7076 232.359 95.61 227.097 99.1526C221.706 102.711 215.362 104.547 208.905 104.418H208.913ZM205.851 87.5616C209.934 87.5616 213.272 86.538 215.864 84.4907C218.542 82.3493 220.549 79.4851 221.647 76.2376C222.94 72.5321 223.575 68.6292 223.525 64.705C223.571 60.7973 222.912 56.9134 221.581 53.2392C220.414 49.9604 218.331 47.0847 215.581 44.9527C212.871 42.8832 209.4 41.8485 205.166 41.8485C201.222 41.8485 198.029 42.8026 195.586 44.7107C193.038 46.7785 191.178 49.5724 190.254 52.7218C189.079 56.6053 188.516 60.6482 188.585 64.705C188.515 68.7619 189.078 72.8049 190.254 76.6882C191.195 79.8681 193.11 82.6728 195.728 84.7076C198.248 86.6103 201.623 87.5616 205.851 87.5616Z" fill="#141414"/>
<path d="M245.706 102.332V99.9619L282.632 43.5256H249.887V27.0779H311.897V29.4478L275.113 85.8841H310.504V102.332H245.706Z" fill="#141414"/>
<path d="M353.155 104.42C345.439 104.42 338.643 102.751 332.768 99.4126C326.997 96.191 322.224 91.4415 318.974 85.6853C315.572 79.5665 313.845 72.6579 313.967 65.6577C313.967 57.4352 315.592 50.2809 318.841 44.1947C321.911 38.3014 326.571 33.3867 332.293 30.0084C338.286 26.5666 345.102 24.8213 352.012 24.9598C359.906 24.9598 366.618 26.8179 372.148 30.5342C377.762 34.3609 382.048 39.8371 384.415 46.2058C387.057 52.9373 387.986 60.8594 387.202 69.972H368.476V63.0374C368.476 55.3712 367.258 49.8553 364.821 46.4895C362.384 43.1238 358.401 41.4381 352.871 41.4325C346.412 41.4325 341.664 43.3964 338.627 47.324C335.589 51.2517 334.073 57.0458 334.079 64.7064C334.079 71.7216 335.6 77.1458 338.643 80.9788C341.686 84.8119 346.156 86.7284 352.053 86.7284C355.407 86.8293 358.721 85.9849 361.617 84.2917C364.305 82.6186 366.419 80.1642 367.675 77.257L386.626 82.6895C383.987 89.3308 379.287 94.9498 373.216 98.72C367.21 102.496 360.249 104.474 353.155 104.42ZM328.237 70.0053V55.9192H378.131V69.997L328.237 70.0053Z" fill="#141414"/>
<path d="M399.419 102.333V27.0792H416.108V45.4379L414.298 43.0763C415.238 40.5265 416.551 38.1304 418.195 35.9665C419.833 33.8349 421.875 32.0458 424.203 30.7009C426.053 29.5713 428.046 28.693 430.128 28.0889C432.286 27.4611 434.504 27.0639 436.745 26.904C439.024 26.7454 441.312 26.8041 443.58 27.0792V44.7786C441.214 44.103 438.743 43.8793 436.295 44.1194C433.694 44.2817 431.146 44.9299 428.784 46.0304C426.661 46.9869 424.753 48.3636 423.177 50.0776C421.616 51.8135 420.431 53.8534 419.697 56.0692C418.873 58.5751 418.472 61.2008 418.512 63.8383V102.3L399.419 102.333Z" fill="#141414"/>
</svg>
