<svg width="143" height="143" viewBox="0 0 143 143" fill="none" xmlns="http://www.w3.org/2000/svg">
<path d="M94.52 58.37L91.17 61.73C89.8572 63.0428 88.0766 63.7804 86.22 63.7804C84.3634 63.7804 82.5828 63.0428 81.27 61.73C79.9572 60.4172 79.2196 58.6366 79.2196 56.78C79.2196 54.9234 79.9572 53.1428 81.27 51.83L84.63 48.47C83.4447 48.1607 82.225 48.0028 81 48C78.7571 47.9996 76.5469 48.5381 74.5555 49.5702C72.5641 50.6022 70.8499 52.0977 69.5571 53.9305C68.2643 55.7634 67.4307 57.88 67.1267 60.1023C66.8227 62.3245 67.057 64.5872 67.81 66.7L49.34 82.34C47.8389 83.8411 46.9955 85.8771 46.9955 88C46.9955 89.0512 47.2026 90.092 47.6048 91.0632C48.0071 92.0343 48.5967 92.9167 49.34 93.66C50.0833 94.4033 50.9657 94.9929 51.9368 95.3951C52.908 95.7974 53.9488 96.0044 55 96.0044C57.1229 96.0044 59.1589 95.1611 60.66 93.66L76.3 75.19C78.7057 76.0473 81.3001 76.2302 83.8024 75.7188C86.3046 75.2075 88.6192 74.0215 90.4958 72.2891C92.3723 70.5567 93.7393 68.3441 94.4486 65.8906C95.1579 63.4372 95.1826 60.8365 94.52 58.37V58.37Z" stroke="black"/>
<g opacity="0.07">
<path d="M71.5 0C62.1105 0 52.8129 1.86234 44.1381 5.48067C35.4634 9.09901 27.5813 14.4025 20.9419 21.0883C14.3025 27.7741 9.03582 35.7113 5.44261 44.4468C1.8494 53.1822 0 62.5448 0 72H2.2C2.2 62.8357 3.9925 53.7612 7.47515 45.2946C10.9578 36.8279 16.0624 29.1349 22.4975 22.6548C28.9326 16.1747 36.5722 11.0344 44.98 7.52742C53.3879 4.02042 62.3994 2.21538 71.5 2.21538C80.6006 2.21538 89.6121 4.02042 98.02 7.52742C106.428 11.0344 114.067 16.1747 120.502 22.6548C126.938 29.1349 132.042 36.8279 135.525 45.2946C139.008 53.7612 140.8 62.8357 140.8 72H143C143 62.5448 141.151 53.1822 137.557 44.4468C133.964 35.7113 128.698 27.7741 122.058 21.0883C115.419 14.4025 107.537 9.09901 98.8619 5.48067C90.1871 1.86233 80.8895 0 71.5 0Z" fill="url(#paint0_linear_223_281)"/>
<path d="M71.5 8.86154C54.8709 8.86154 38.9229 15.5136 27.1644 27.3544C15.4059 39.1951 8.8 55.2546 8.8 72H11C11 55.8422 17.3741 40.3462 28.72 28.9209C40.066 17.4956 55.4544 11.0769 71.5 11.0769C87.5456 11.0769 102.934 17.4956 114.28 28.9209C125.626 40.3462 132 55.8422 132 72H134.2C134.2 55.2546 127.594 39.1951 115.836 27.3544C104.077 15.5136 88.1291 8.86154 71.5 8.86154Z" fill="url(#paint1_linear_223_281)"/>
<path d="M33.387 33.6204C43.4952 23.4415 57.2048 17.7231 71.5 17.7231C85.7952 17.7231 99.5048 23.4415 109.613 33.6204C119.721 43.7993 125.4 57.6049 125.4 72H123.2C123.2 58.1924 117.753 44.9504 108.057 35.1869C98.3618 25.4235 85.2117 19.9385 71.5 19.9385C57.7883 19.9385 44.6382 25.4235 34.9426 35.1869C25.247 44.9504 19.8 58.1924 19.8 72H17.6C17.6 57.6048 23.2787 43.7993 33.387 33.6204Z" fill="url(#paint2_linear_223_281)"/>
<path d="M71.5 26.5846C59.5387 26.5846 48.0674 31.3694 39.6095 39.8865C31.1516 48.4035 26.4 59.9551 26.4 72H28.6C28.6 60.5426 33.1198 49.5545 41.1651 41.453C49.2104 33.3514 60.1222 28.8 71.5 28.8C82.8778 28.8 93.7896 33.3514 101.835 41.453C109.88 49.5546 114.4 60.5426 114.4 72H116.6C116.6 59.9551 111.848 48.4035 103.391 39.8865C94.9326 31.3694 83.4613 26.5846 71.5 26.5846Z" fill="url(#paint3_linear_223_281)"/>
<path d="M45.832 46.1525C52.6396 39.2973 61.8726 35.4461 71.5 35.4461C81.1274 35.4461 90.3604 39.2973 97.168 46.1525C103.976 53.0077 107.8 62.3053 107.8 72H105.6C105.6 62.8929 102.007 54.1587 95.6123 47.719C89.2174 41.2793 80.5439 37.6615 71.5 37.6615C62.4561 37.6615 53.7826 41.2793 47.3877 47.719C40.9927 54.1587 37.4 62.8929 37.4 72H35.2C35.2 62.3053 39.0245 53.0077 45.832 46.1525Z" fill="url(#paint4_linear_223_281)"/>
<path d="M71.5 44.3077C64.2066 44.3077 57.2118 47.2253 52.0546 52.4186C46.8973 57.6119 44 64.6555 44 72H46.2C46.2 65.2431 48.8655 58.7629 53.6102 53.9851C58.3549 49.2072 64.79 46.5231 71.5 46.5231C78.21 46.5231 84.6451 49.2072 89.3898 53.9851C94.1345 58.7629 96.8 65.2431 96.8 72H99C99 64.6555 96.1027 57.6119 90.9454 52.4186C85.7882 47.2253 78.7935 44.3077 71.5 44.3077Z" fill="url(#paint5_linear_223_281)"/>
</g>
<g opacity="0.07">
<path d="M71.5 143C62.1105 143 52.8129 141.164 44.1381 137.595C35.4634 134.027 27.5813 128.798 20.9419 122.205C14.3025 115.612 9.03582 107.785 5.44261 99.1705C1.8494 90.5564 0 81.3239 0 72H2.2C2.2 81.037 3.9925 89.9854 7.47515 98.3345C10.9578 106.684 16.0624 114.27 22.4975 120.66C28.9326 127.05 36.5722 132.119 44.98 135.577C53.3879 139.035 62.3994 140.815 71.5 140.815C80.6006 140.815 89.6121 139.035 98.02 135.577C106.428 132.119 114.067 127.05 120.502 120.66C126.938 114.27 132.042 106.684 135.525 98.3345C139.008 89.9854 140.8 81.037 140.8 72H143C143 81.3239 141.151 90.5564 137.557 99.1705C133.964 107.785 128.698 115.612 122.058 122.205C115.419 128.798 107.537 134.027 98.8619 137.595C90.1871 141.164 80.8895 143 71.5 143Z" fill="url(#paint6_linear_223_281)"/>
<path d="M71.5 134.262C54.8709 134.262 38.9229 127.702 27.1644 116.026C15.4059 104.349 8.8 88.5128 8.8 72H11C11 87.9334 17.3741 103.214 28.72 114.481C40.066 125.747 55.4544 132.077 71.5 132.077C87.5456 132.077 102.934 125.747 114.28 114.481C125.626 103.214 132 87.9334 132 72H134.2C134.2 88.5128 127.594 104.349 115.836 116.026C104.077 127.702 88.1291 134.262 71.5 134.262Z" fill="url(#paint7_linear_223_281)"/>
<path d="M33.387 109.847C43.4952 119.884 57.2048 125.523 71.5 125.523C85.7952 125.523 99.5048 119.884 109.613 109.847C119.721 99.809 125.4 86.1952 125.4 72H123.2C123.2 85.6158 117.753 98.6739 108.057 108.302C98.3618 117.93 85.2117 123.338 71.5 123.338C57.7883 123.338 44.6382 117.93 34.9426 108.302C25.247 98.674 19.8 85.6158 19.8 72H17.6C17.6 86.1952 23.2787 99.809 33.387 109.847Z" fill="url(#paint8_linear_223_281)"/>
<path d="M71.5 116.785C59.5387 116.785 48.0674 112.066 39.6095 103.668C31.1516 95.2688 26.4 83.8776 26.4 72H28.6C28.6 83.2982 33.1198 94.1337 41.1651 102.123C49.2104 110.112 60.1222 114.6 71.5 114.6C82.8778 114.6 93.7896 110.112 101.835 102.123C109.88 94.1337 114.4 83.2982 114.4 72H116.6C116.6 83.8776 111.848 95.2688 103.391 103.668C94.9326 112.066 83.4613 116.785 71.5 116.785Z" fill="url(#paint9_linear_223_281)"/>
<path d="M45.832 97.4885C52.6396 104.248 61.8726 108.046 71.5 108.046C81.1274 108.046 90.3604 104.248 97.168 97.4885C103.976 90.7285 107.8 81.56 107.8 72H105.6C105.6 80.9806 102.007 89.5935 95.6123 95.9437C89.2174 102.294 80.5439 105.862 71.5 105.862C62.4561 105.862 53.7826 102.294 47.3877 95.9437C40.9927 89.5935 37.4 80.9807 37.4 72H35.2C35.2 81.5601 39.0245 90.7285 45.832 97.4885Z" fill="url(#paint10_linear_223_281)"/>
<path d="M71.5 99.3077C64.2066 99.3077 57.2118 96.4306 52.0546 91.3095C46.8973 86.1883 44 79.2425 44 72H46.2C46.2 78.6631 48.8655 85.0532 53.6102 89.7647C58.3549 94.4762 64.79 97.1231 71.5 97.1231C78.21 97.1231 84.6451 94.4762 89.3898 89.7647C94.1345 85.0532 96.8 78.6631 96.8 72H99C99 79.2425 96.1027 86.1883 90.9454 91.3095C85.7882 96.4306 78.7935 99.3077 71.5 99.3077Z" fill="url(#paint11_linear_223_281)"/>
</g>
<defs>
<linearGradient id="paint0_linear_223_281" x1="71.5" y1="0" x2="71.5" y2="75.3231" gradientUnits="userSpaceOnUse">
<stop stop-color="#2D2D2D"/>
<stop offset="1" stop-color="white" stop-opacity="0"/>
</linearGradient>
<linearGradient id="paint1_linear_223_281" x1="71.5" y1="0" x2="71.5" y2="75.3231" gradientUnits="userSpaceOnUse">
<stop stop-color="#2D2D2D"/>
<stop offset="1" stop-color="white" stop-opacity="0"/>
</linearGradient>
<linearGradient id="paint2_linear_223_281" x1="71.5" y1="0" x2="71.5" y2="75.3231" gradientUnits="userSpaceOnUse">
<stop stop-color="#2D2D2D"/>
<stop offset="1" stop-color="white" stop-opacity="0"/>
</linearGradient>
<linearGradient id="paint3_linear_223_281" x1="71.5" y1="0" x2="71.5" y2="75.3231" gradientUnits="userSpaceOnUse">
<stop stop-color="#2D2D2D"/>
<stop offset="1" stop-color="white" stop-opacity="0"/>
</linearGradient>
<linearGradient id="paint4_linear_223_281" x1="71.5" y1="0" x2="71.5" y2="75.3231" gradientUnits="userSpaceOnUse">
<stop stop-color="#2D2D2D"/>
<stop offset="1" stop-color="white" stop-opacity="0"/>
</linearGradient>
<linearGradient id="paint5_linear_223_281" x1="71.5" y1="0" x2="71.5" y2="75.3231" gradientUnits="userSpaceOnUse">
<stop stop-color="#2D2D2D"/>
<stop offset="1" stop-color="white" stop-opacity="0"/>
</linearGradient>
<linearGradient id="paint6_linear_223_281" x1="71.5" y1="143" x2="71.5" y2="68.7231" gradientUnits="userSpaceOnUse">
<stop stop-color="#555555"/>
<stop offset="1" stop-color="white" stop-opacity="0"/>
</linearGradient>
<linearGradient id="paint7_linear_223_281" x1="71.5" y1="143" x2="71.5" y2="68.7231" gradientUnits="userSpaceOnUse">
<stop stop-color="#555555"/>
<stop offset="1" stop-color="white" stop-opacity="0"/>
</linearGradient>
<linearGradient id="paint8_linear_223_281" x1="71.5" y1="143" x2="71.5" y2="68.7231" gradientUnits="userSpaceOnUse">
<stop stop-color="#555555"/>
<stop offset="1" stop-color="white" stop-opacity="0"/>
</linearGradient>
<linearGradient id="paint9_linear_223_281" x1="71.5" y1="143" x2="71.5" y2="68.7231" gradientUnits="userSpaceOnUse">
<stop stop-color="#555555"/>
<stop offset="1" stop-color="white" stop-opacity="0"/>
</linearGradient>
<linearGradient id="paint10_linear_223_281" x1="71.5" y1="143" x2="71.5" y2="68.7231" gradientUnits="userSpaceOnUse">
<stop stop-color="#555555"/>
<stop offset="1" stop-color="white" stop-opacity="0"/>
</linearGradient>
<linearGradient id="paint11_linear_223_281" x1="71.5" y1="143" x2="71.5" y2="68.7231" gradientUnits="userSpaceOnUse">
<stop stop-color="#555555"/>
<stop offset="1" stop-color="white" stop-opacity="0"/>
</linearGradient>
</defs>
</svg>
