<svg width="132" height="126" viewBox="0 0 132 126" fill="none" xmlns="http://www.w3.org/2000/svg">
<path d="M94 77H46V57" stroke="black"/>
<path d="M58 41V77" stroke="black"/>
<path d="M70 53V77" stroke="black"/>
<path d="M82 29V77" stroke="black"/>
<path d="M100.117 33.6173C112.296 48.8261 110.252 70.8778 95.5665 82.8729C80.881 94.8681 59.1013 92.2757 46.9217 77.067C34.7421 61.8582 36.7862 39.8065 51.4717 27.8114C66.1572 15.8162 87.9369 18.4086 100.117 33.6173Z" stroke="url(#paint0_linear_209_300)" stroke-opacity="0.45" stroke-width="0.4"/>
<path d="M95.9677 40.2774C107.273 54.394 105.375 74.8614 91.7448 85.9946C78.1147 97.1277 57.8995 94.722 46.5946 80.6054C35.2897 66.4889 37.1873 46.0214 50.8175 34.8883C64.4476 23.7552 84.6628 26.1609 95.9677 40.2774Z" stroke="url(#paint1_linear_209_300)" stroke-opacity="0.45" stroke-width="0.4"/>
<path d="M91.8187 46.9378C102.249 59.9621 100.498 78.8453 87.923 89.1165C75.3481 99.3876 56.6976 97.1685 46.2674 84.1442C35.8371 71.1198 37.5883 52.2366 50.1631 41.9655C62.7379 31.6943 81.3885 33.9134 91.8187 46.9378Z" stroke="url(#paint2_linear_209_300)" stroke-opacity="0.45" stroke-width="0.4"/>
<path d="M87.6699 53.5974C97.2255 65.5295 95.6207 82.8285 84.1013 92.2376C72.5818 101.647 55.4959 99.6143 45.9403 87.6822C36.3847 75.75 37.9895 58.451 49.5089 49.0419C61.0284 39.6328 78.1143 41.6653 87.6699 53.5974Z" stroke="url(#paint3_linear_209_300)" stroke-opacity="0.45" stroke-width="0.4"/>
<path d="M83.521 60.2577C92.2018 71.0976 90.7436 86.8124 80.2795 95.3595C69.8154 103.907 54.294 102.061 45.6132 91.2209C36.9323 80.381 38.3905 64.6662 48.8546 56.1191C59.3187 47.572 74.8401 49.4178 83.521 60.2577Z" stroke="url(#paint4_linear_209_300)" stroke-opacity="0.45" stroke-width="0.4"/>
<path d="M79.3722 66.9178C87.1784 76.6655 85.8666 90.7961 76.4578 98.4812C67.0491 106.166 53.0923 104.507 45.2861 94.7594C37.4799 85.0117 38.7917 70.8811 48.2004 63.196C57.6092 55.5109 71.5659 57.1701 79.3722 66.9178Z" stroke="url(#paint5_linear_209_300)" stroke-opacity="0.45" stroke-width="0.4"/>
<path d="M75.2232 73.5777C82.1548 82.2331 80.9895 94.7795 72.636 101.603C64.2826 108.426 51.8905 106.953 44.959 98.2976C38.0274 89.6421 39.1927 77.0957 47.5462 70.2727C55.8996 63.4496 68.2917 64.9222 75.2232 73.5777Z" stroke="url(#paint6_linear_209_300)" stroke-opacity="0.45" stroke-width="0.4"/>
<path d="M71.0744 80.2378C77.1313 87.801 76.1124 98.7632 68.8144 104.724C61.5163 110.685 50.6888 109.399 44.6319 101.836C38.5751 94.2728 39.5939 83.3106 46.892 77.3496C54.19 71.3885 65.0176 72.6745 71.0744 80.2378Z" stroke="url(#paint7_linear_209_300)" stroke-opacity="0.45" stroke-width="0.4"/>
<path d="M65.9701 87.6781C71.1522 94.1492 70.2798 103.527 64.0371 108.626C57.7944 113.725 48.5315 112.626 43.3493 106.155C38.1671 99.6838 39.0395 90.3058 45.2822 85.2068C51.5249 80.1077 60.7879 81.2071 65.9701 87.6781Z" stroke="url(#paint8_linear_209_300)" stroke-opacity="0.45" stroke-width="0.4"/>
<path d="M61.821 94.3382C66.1285 99.717 65.4025 107.511 60.2152 111.748C55.0278 115.985 47.3295 115.072 43.022 109.693C38.7145 104.314 39.4404 96.5207 44.6278 92.2837C49.8151 88.0467 57.5135 88.9594 61.821 94.3382Z" stroke="url(#paint9_linear_209_300)" stroke-opacity="0.45" stroke-width="0.4"/>
<path d="M56.7168 101.779C60.1496 106.065 59.5701 112.275 55.4381 115.65C51.3061 119.025 45.1724 118.299 41.7395 114.012C38.3067 109.725 38.8862 103.516 43.0182 100.141C47.1502 96.7659 53.284 97.492 56.7168 101.779Z" stroke="url(#paint10_linear_209_300)" stroke-opacity="0.45" stroke-width="0.4"/>
<path d="M52.5678 108.439C55.1259 111.633 54.6929 116.259 51.6163 118.772C48.5396 121.285 43.9704 120.745 41.4123 117.551C38.8542 114.356 39.2872 109.731 42.3638 107.218C45.4405 104.705 50.0097 105.245 52.5678 108.439Z" stroke="url(#paint11_linear_209_300)" stroke-opacity="0.45" stroke-width="0.4"/>
<path d="M48.419 115.099C50.1024 117.201 49.8159 120.242 47.7946 121.893C45.7733 123.544 42.7687 123.191 41.0853 121.089C39.4018 118.987 39.6883 115.946 41.7096 114.295C43.7309 112.644 46.7355 112.997 48.419 115.099Z" stroke="url(#paint12_linear_209_300)" stroke-opacity="0.45" stroke-width="0.4"/>
<defs>
<linearGradient id="paint0_linear_209_300" x1="51.3467" y1="27.6553" x2="96.2221" y2="82.5957" gradientUnits="userSpaceOnUse">
<stop stop-color="#5E5E5E" stop-opacity="0.18"/>
<stop offset="1" stop-color="white"/>
</linearGradient>
<linearGradient id="paint1_linear_209_300" x1="50.6925" y1="34.7322" x2="92.3625" y2="85.7483" gradientUnits="userSpaceOnUse">
<stop stop-color="#5E5E5E" stop-opacity="0.18"/>
<stop offset="1" stop-color="white"/>
</linearGradient>
<linearGradient id="paint2_linear_209_300" x1="50.0381" y1="41.8093" x2="88.5027" y2="88.9011" gradientUnits="userSpaceOnUse">
<stop stop-color="#5E5E5E" stop-opacity="0.18"/>
<stop offset="1" stop-color="white"/>
</linearGradient>
<linearGradient id="paint3_linear_209_300" x1="49.3839" y1="48.8858" x2="84.6432" y2="92.0533" gradientUnits="userSpaceOnUse">
<stop stop-color="#5E5E5E" stop-opacity="0.18"/>
<stop offset="1" stop-color="white"/>
</linearGradient>
<linearGradient id="paint4_linear_209_300" x1="48.7296" y1="55.9629" x2="80.7835" y2="95.2061" gradientUnits="userSpaceOnUse">
<stop stop-color="#5E5E5E" stop-opacity="0.18"/>
<stop offset="1" stop-color="white"/>
</linearGradient>
<linearGradient id="paint5_linear_209_300" x1="48.0754" y1="63.0399" x2="76.9239" y2="98.3587" gradientUnits="userSpaceOnUse">
<stop stop-color="#5E5E5E" stop-opacity="0.18"/>
<stop offset="1" stop-color="white"/>
</linearGradient>
<linearGradient id="paint6_linear_209_300" x1="47.4211" y1="70.1165" x2="73.0642" y2="101.511" gradientUnits="userSpaceOnUse">
<stop stop-color="#5E5E5E" stop-opacity="0.18"/>
<stop offset="1" stop-color="white"/>
</linearGradient>
<linearGradient id="paint7_linear_209_300" x1="46.767" y1="77.1935" x2="69.2047" y2="104.664" gradientUnits="userSpaceOnUse">
<stop stop-color="#5E5E5E" stop-opacity="0.18"/>
<stop offset="1" stop-color="white"/>
</linearGradient>
<linearGradient id="paint8_linear_209_300" x1="45.1572" y1="85.0507" x2="64.3895" y2="108.597" gradientUnits="userSpaceOnUse">
<stop stop-color="#5E5E5E" stop-opacity="0.18"/>
<stop offset="1" stop-color="white"/>
</linearGradient>
<linearGradient id="paint9_linear_209_300" x1="44.5028" y1="92.1276" x2="60.5297" y2="111.749" gradientUnits="userSpaceOnUse">
<stop stop-color="#5E5E5E" stop-opacity="0.18"/>
<stop offset="1" stop-color="white"/>
</linearGradient>
<linearGradient id="paint10_linear_209_300" x1="42.8932" y1="99.9848" x2="55.7147" y2="115.682" gradientUnits="userSpaceOnUse">
<stop stop-color="#5E5E5E" stop-opacity="0.18"/>
<stop offset="1" stop-color="white"/>
</linearGradient>
<linearGradient id="paint11_linear_209_300" x1="42.2388" y1="107.062" x2="51.855" y2="118.835" gradientUnits="userSpaceOnUse">
<stop stop-color="#5E5E5E" stop-opacity="0.18"/>
<stop offset="1" stop-color="white"/>
</linearGradient>
<linearGradient id="paint12_linear_209_300" x1="41.5846" y1="114.139" x2="47.9954" y2="121.987" gradientUnits="userSpaceOnUse">
<stop stop-color="#5E5E5E" stop-opacity="0.18"/>
<stop offset="1" stop-color="white"/>
</linearGradient>
</defs>
</svg>
