<svg width="134" height="35" viewBox="0 0 134 35" fill="none" xmlns="http://www.w3.org/2000/svg">
<path fill-rule="evenodd" clip-rule="evenodd" d="M117.682 10.3271C117.682 9.70125 117.178 9.19446 116.552 9.19446H114.877C114.25 9.19446 113.746 9.70339 113.746 10.3292V27.8472C113.746 28.4737 114.251 28.9805 114.877 28.9805H116.553C117.178 28.9805 117.682 28.4709 117.682 27.8458V10.3271ZM119.818 10.7925V11.6258C119.818 11.9693 120.099 12.248 120.444 12.248H131.999C132.527 12.248 132.954 11.8225 132.954 11.2957V9.88586C132.954 9.3584 132.522 8.88155 131.999 8.93359C131.999 8.93359 120.827 10.0298 120.469 10.0698C120.289 10.0856 120.122 10.1689 120.001 10.303C119.88 10.4371 119.815 10.612 119.818 10.7925ZM110.462 28.9812C107.588 28.9812 105.778 26.8008 105.778 24.3745L105.776 17.3651H104.954C104.85 17.3652 104.747 17.3447 104.65 17.305C104.554 17.2653 104.467 17.207 104.393 17.1334C104.32 17.0599 104.261 16.9726 104.221 16.8764C104.181 16.7803 104.161 16.6773 104.161 16.5732V15.3999C104.161 14.9616 104.517 14.6087 104.957 14.6087L105.776 14.6102L105.775 10.3007C105.775 9.69056 106.266 9.19589 106.878 9.19589H108.512C109.121 9.19589 109.615 9.69412 109.615 10.3043V14.6109L112.161 14.6102C112.599 14.6102 112.957 14.9623 112.957 15.4013V16.5746C112.957 17.0137 112.601 17.3665 112.164 17.3665L109.615 17.3658L109.618 23.8492C109.618 25.1215 110.389 25.9904 111.766 25.9904H111.998C112.474 25.9904 112.861 26.3732 112.861 26.8493V28.1216C112.861 28.5992 112.476 28.9819 112 28.9819H110.462V28.9812ZM83.5418 14.1048C78.8945 14.1048 76.2885 17.7414 76.2885 21.574C76.2885 25.6583 79.0798 29.2528 83.5725 29.2528C86.6474 29.2528 89.6782 27.6327 90.2506 24.9733C90.3283 24.614 90.0866 24.1436 89.5813 24.1407L87.383 24.1422C86.9846 24.1422 86.6588 24.3332 86.4628 24.6212C85.8334 25.5428 84.9132 26.0325 83.5518 26.0325C81.6266 26.0325 80.293 24.5164 80.1925 22.8349H89.5349C90.3953 22.8349 90.7809 22.3673 90.7809 21.5733C90.7809 17.8376 88.5677 14.1048 83.5418 14.1048ZM83.5418 17.1042C85.2568 17.1042 86.738 18.3245 86.8884 19.976H80.2203C80.3707 18.3245 81.8269 17.1042 83.5418 17.1042ZM126.117 14.1048C121.469 14.1048 118.862 17.7414 118.862 21.574C118.862 25.6583 121.654 29.2528 126.146 29.2528C129.221 29.2528 132.252 27.6327 132.824 24.9733C132.902 24.614 132.66 24.1436 132.155 24.1407L129.958 24.1422C129.558 24.1422 129.233 24.3332 129.037 24.6212C128.407 25.5428 127.487 26.0325 126.126 26.0325C124.2 26.0325 122.867 24.5164 122.766 22.8349H132.109C132.969 22.8349 133.355 22.3673 133.355 21.5733C133.355 17.8376 131.141 14.1048 126.117 14.1048ZM126.117 17.1042C127.831 17.1042 129.313 18.3245 129.462 19.976H122.794C122.944 18.3245 124.4 17.1042 126.117 17.1042Z" fill="#2D2D2D"/>
<path fill-rule="evenodd" clip-rule="evenodd" d="M102.634 9.39021H72.3697C71.6818 9.39021 71.1266 9.94903 71.1266 10.6369L71.2299 22.5226C71.2299 22.5226 64.7094 10.7424 64.3694 10.1422C64.0493 9.57696 63.3629 9.05591 62.4121 9.05591H59.9237C59.2352 9.05591 58.6785 9.61473 58.6785 10.3026L58.6799 27.7337C58.6799 28.4216 59.2359 28.9797 59.9244 28.9797H61.5204C61.8509 28.9789 62.1677 28.847 62.4011 28.6128C62.6344 28.3787 62.7653 28.0615 62.7649 27.7309L62.6644 15.5116C62.6644 15.5116 69.2484 27.408 69.5299 27.877C69.9099 28.5107 70.5535 28.9797 71.4844 28.9797H73.7703C74.4596 28.9797 75.0148 28.4216 75.0148 27.7337L75.0134 12.3447H102.635C102.747 12.345 102.857 12.3233 102.961 12.2808C103.064 12.2383 103.157 12.1758 103.236 12.097C103.315 12.0182 103.378 11.9246 103.421 11.8216C103.464 11.7185 103.486 11.6081 103.486 11.4965V10.2384C103.485 10.013 103.395 9.79706 103.235 9.63801C103.076 9.47896 102.859 9.38983 102.634 9.39021Z" fill="#2D2D2D"/>
<path fill-rule="evenodd" clip-rule="evenodd" d="M97.7347 16.9587C99.0505 16.9587 100.035 17.4363 100.39 18.261C100.56 18.658 100.89 18.7343 101.342 18.7343H103.152C103.453 18.7343 103.793 18.477 103.793 18.0856C103.793 15.9815 101.286 14.1033 97.7333 14.1033C94.0582 14.1033 91.6454 15.8546 91.6454 18.6423C91.6454 20.7764 93.3297 22.0459 95.4025 22.5876C96.3477 22.8356 97.9614 23.2334 98.7462 23.4394C99.593 23.6618 100.35 23.9198 100.35 24.6461C100.35 25.7901 99.1418 26.18 97.826 26.18C96.5772 26.18 95.3341 25.6219 94.9777 24.7324C94.7703 24.2156 94.4096 24.1408 93.8615 24.1408H92.0211C91.6996 24.1408 91.3304 24.4166 91.3304 24.8357V25.0724C91.3304 27.1088 94.0618 29.2407 97.8288 29.2407C100.5 29.2407 104.223 28.1309 104.223 24.5478C104.223 22.4721 102.835 21.0352 100.576 20.4621C99.692 20.2383 97.5687 19.698 97.1068 19.5782C96.2828 19.3651 95.5158 19.0964 95.5158 18.3907C95.5158 17.3222 96.5031 16.9587 97.7347 16.9587ZM30.7416 5.36312C30.9025 5.36312 31.0568 5.29922 31.1705 5.18546C31.2843 5.07171 31.3482 4.91742 31.3482 4.75655C31.3482 4.59567 31.2843 4.44139 31.1705 4.32763C31.0568 4.21387 30.9025 4.14997 30.7416 4.14997C30.5808 4.14997 30.4265 4.21387 30.3127 4.32763C30.199 4.44139 30.1351 4.59567 30.1351 4.75655C30.1351 4.91742 30.199 5.07171 30.3127 5.18546C30.4265 5.29922 30.5808 5.36312 30.7416 5.36312ZM22.5959 4.28896C22.7313 4.28896 22.8611 4.23519 22.9568 4.13948C23.0525 4.04377 23.1063 3.91396 23.1063 3.7786C23.1063 3.64325 23.0525 3.51344 22.9568 3.41773C22.8611 3.32202 22.7313 3.26825 22.5959 3.26825C22.4606 3.26825 22.3308 3.32202 22.2351 3.41773C22.1394 3.51344 22.0856 3.64325 22.0856 3.7786C22.0856 3.91396 22.1394 4.04377 22.2351 4.13948C22.3308 4.23519 22.4606 4.28896 22.5959 4.28896ZM16.4895 16.7684L16.2408 16.5018C16.9336 15.8582 17.667 14.8318 17.7861 14.2295C17.8966 13.6692 18.702 13.7583 18.5488 14.3678C18.3542 15.1468 17.4005 16.0877 16.4895 16.7684ZM11.3211 4.50137C10.046 5.05306 9.85921 6.36031 10.7538 7.14509C11.8322 8.09024 13.6106 7.26698 13.4395 5.82002C14.8858 5.89415 15.8188 4.40015 15.5886 3.35093C16.2322 2.79995 16.2964 1.62243 15.5244 1.15983C14.6969 0.664443 13.9178 0.85404 13.4217 1.80989C12.0966 1.71366 10.8272 2.75575 11.3211 4.50137L10.7074 4.23336C9.89841 2.54121 11.3154 0.812701 13.0532 1.21115C13.1791 0.93854 13.3624 0.69633 13.5905 0.501082C13.8186 0.305834 14.0862 0.162151 14.375 0.0798553C14.6638 -0.00244076 14.967 -0.0214068 15.2637 0.0242504C15.5605 0.0699077 15.8439 0.17911 16.0946 0.344398C17.2101 1.02012 17.4461 2.7636 16.26 3.60896C16.8195 5.23625 15.704 6.56559 14.0069 6.41377C13.808 8.50651 11.8336 8.77666 10.5584 7.78304C9.83854 7.22207 9.54416 6.44442 9.40517 5.8578C9.25904 5.23696 9.25904 4.68099 8.64605 4.04162C8.18488 3.55907 7.35876 3.57546 7.35876 3.57546C7.35876 2.05509 5.93676 0.66373 4.1712 1.33731C3.54537 0.798447 2.772 0.744985 2.21817 1.41144C1.89599 1.79848 1.71851 2.81563 2.71141 3.28179C2.66009 4.66745 3.71644 5.55201 5.26104 5.42942C5.32163 6.16572 6.13777 6.85 6.86124 6.94765L6.85483 7.31759C6.08288 7.24346 5.66519 7.51289 5.15056 8.15083C3.3351 8.0653 2.06349 8.87288 2.11624 10.1751C0.840357 10.4175 0.601575 11.7533 1.32505 12.4646C2.04853 13.176 3.10915 12.8973 3.47053 12.0476C4.75782 12.2928 5.89471 11.3705 5.94674 10.3063C7.14921 10.3063 7.67524 9.83087 7.87197 8.72534L8.32601 8.76241C8.46001 9.95276 7.90903 11.0825 6.4742 10.9478C6.43713 12.3691 5.0579 13.1639 3.77132 12.6727C3.17045 13.8011 1.79406 14.2523 0.638639 13.151C-0.47758 12.0875 -0.0698674 10.2664 1.3892 9.82517C1.4227 8.43167 2.45196 7.10803 4.45132 7.61838C4.45132 7.61838 4.70863 6.99612 5.33446 6.95905C4.91748 6.78798 4.60172 6.55776 4.51547 6.12866C3.00722 6.45013 1.72635 5.06162 2.0692 3.66385C0.708492 2.9475 0.686396 1.60318 1.3614 0.804148C2.06492 -0.0276729 3.23674 -0.211572 4.28524 0.685113C6.06078 -0.298531 8.06798 0.906073 7.94538 2.92896C9.18705 2.84628 9.94118 3.93185 9.8029 5.06233C10.0075 4.56409 10.247 4.33315 10.706 4.23336L11.3211 4.50137Z" fill="#2D2D2D"/>
<path fill-rule="evenodd" clip-rule="evenodd" d="M14.3719 2.07373L14.6719 2.28828C14.0896 3.51712 13.0589 4.82223 12.1765 5.54L11.8393 5.28625C12.4652 4.26839 13.808 2.58836 14.3719 2.07373ZM5.68444 8.82308L5.88687 9.12317C5.15127 9.87729 3.78986 10.883 3.06709 11.2323L2.78483 10.9258C3.48407 10.1717 4.81983 9.18447 5.68444 8.82308ZM7.44359 5.17149L7.08862 5.61056C6.12565 4.97904 4.22537 3.28119 3.79698 2.6689L4.09635 2.36312C5.01656 2.82928 6.81206 4.4302 7.44359 5.17149ZM5.65735 21.2833C5.76712 21.8342 5.67517 22.4444 6.17198 23.0403C6.34733 23.2491 7.31172 24.5186 8.01097 25.1744C7.06082 25.5486 5.16054 26.3212 3.79271 26.493C3.519 26.5279 3.21108 26.7197 2.95305 26.8672C2.78198 27.1595 2.60521 27.6819 2.53108 28.2721C2.47833 28.6941 2.48546 29.1631 2.48546 29.6421C2.48546 30.0641 2.70856 31.3905 3.18043 32.2815C3.653 33.1725 4.10633 33.571 4.66444 33.8311C4.77492 33.7826 5.01798 33.7463 5.39719 33.7377C6.43001 33.7142 7.23831 34.2852 7.5947 34.7748C7.73084 34.963 8.00455 35.0001 8.36451 35.0001C9.19775 35.0001 10.1144 34.7257 10.9847 34.3942C11.1707 34.241 11.6953 33.8917 12.2107 33.4868C12.7253 33.0834 15.5943 30.65 16.8637 30.0355C17.5323 30.3976 18.63 30.8638 19.7634 30.8638C19.8289 30.8638 20.047 30.8666 20.2787 30.8153C20.633 30.7348 21.087 30.5773 21.6579 30.4646C22.6808 30.2658 23.8804 30.0904 24.2304 30.0954C25.1713 30.1104 27.929 30.1817 28.5826 30.1817C29.2683 30.1817 30.2463 30.1218 30.6198 30.0854C31.1971 29.8944 32.4837 29.538 33.7161 28.9692C34.9457 28.4247 37.5345 26.6277 37.9579 26.2172C38.1639 26.0333 38.3464 25.8315 38.4811 25.6519C38.5317 25.5821 38.5502 25.5543 38.5502 25.4987L38.536 23.6832C38.536 23.6832 39.1547 22.9968 39.3913 22.7587C39.4141 22.7366 39.4155 22.7046 39.412 22.6825C39.3058 22.3303 39.1996 21.2348 39.2602 20.1236L38.6336 19.8313C38.6053 20.9985 38.2591 22.1359 37.6321 23.1208C36.7005 23.2684 34.9229 23.8193 34.2828 24.5478L34.6349 24.6483C35.2358 24.3169 35.8794 24.0845 36.615 24.0845C37.2651 24.0845 37.5516 24.2556 37.5516 24.438C37.5516 24.5663 37.429 24.8736 37.382 24.9712C37.3257 25.0824 37.2886 25.2242 37.1795 25.3426C36.2912 26.3173 35.2502 27.1411 34.0975 27.7817C33.2806 28.2386 32.5101 28.5458 31.3055 28.8872C30.9448 28.9892 30.4501 29.1353 30.1287 29.2465C29.6746 29.2322 27.3025 29.1631 25.9168 29.1631C24.5319 29.1631 21.675 29.3648 20.767 29.5943C20.355 29.6984 20.2523 29.8645 19.7733 29.8645C18.8788 29.8645 17.7048 29.4104 16.9842 29.0612C16.8801 29.0918 16.6193 29.2073 16.3591 29.337C15.8473 29.5915 14.7097 31.1703 14.0483 30.6927C13.7104 31.3848 12.252 32.0406 11.7531 32.7584C11.808 32.3827 12.3967 29.945 12.4523 29.4575C12.4623 29.3712 12.4694 29.3014 12.4145 29.2094C11.8821 28.3199 10.3938 27.7546 9.55486 27.5907C9.30823 27.5422 9.18706 27.5087 9.02169 27.4709L7.69805 27.0711L6.46993 27.4709L7.88694 27.7425L6.08859 28.9343C6.40079 28.8145 8.33885 28.2771 8.48212 28.2343C8.64035 28.1873 8.85205 28.141 9.08299 28.2215C9.34672 28.3135 10.0944 28.4845 10.5392 28.6392C10.8008 28.7297 11.2292 29.2101 11.3397 29.466C11.3846 29.5729 11.4017 29.7975 11.4309 30.2943C11.4487 30.6072 11.3689 31.042 11.2933 31.3799C11.0952 32.2637 10.6932 32.9544 10.5663 33.201C10.391 33.541 10.1486 33.6508 9.90982 33.7634C9.51779 33.9473 9.0388 34.0628 8.50635 34.0699C8.14069 34.0742 7.89621 34.0549 7.74011 33.8432C7.249 33.1803 6.03584 32.5374 4.79702 32.7769C4.03719 32.3172 3.28378 30.8331 3.28378 29.6514C3.28378 28.9428 3.6416 27.8259 3.83405 27.2649C5.07144 27.0996 7.54623 26.1566 8.75012 25.6099C9.00245 25.597 9.69456 25.3525 10.356 25.3525C11.9748 25.3525 13.5807 26.7681 14.5558 27.7247C14.7154 27.4617 15.0155 27.0632 15.843 27.0632C16.9892 27.0632 17.645 28.1046 17.9736 29.1766L18.5709 28.7426C18.4518 28.0763 18.136 27.4609 17.6642 26.9756C17.2686 26.58 16.5152 26.2514 15.9257 26.2514C15.5715 26.2514 15.203 26.3305 14.9706 26.3305C14.1516 26.3305 13.818 25.9655 13.2136 25.5493C12.5607 25.0981 11.3461 24.4438 10.4793 24.4438C9.92123 24.4438 9.67033 24.6626 9.20987 24.664C8.53272 24.6683 8.28111 24.3867 7.95679 23.9833C7.81495 23.8065 7.12925 23.1978 6.94607 22.9533C6.84057 22.8129 6.65382 22.2377 6.58611 21.9497L5.65735 21.2833Z" fill="#2D2D2D"/>
<path fill-rule="evenodd" clip-rule="evenodd" d="M6.58822 21.9496C6.78495 22.1599 6.97455 22.3922 7.22046 22.5804C7.45782 22.76 7.7579 22.9161 8.03945 23.0758C8.43718 23.301 8.88838 23.5591 9.336 23.7009C9.72804 23.8192 10.237 23.8677 10.7145 23.8677C11.3952 23.8677 12.1985 23.7273 12.8636 24.0373C13.3098 24.2462 13.3397 24.7166 13.694 24.8542C14.2457 25.0687 15.7789 25.1186 16.6285 25.1186C18.3114 25.1186 20.1318 24.9055 21.2074 24.6482L20.6828 24.0701C19.9387 24.1885 17.7547 24.4265 16.7525 24.4265C15.3405 24.4265 14.0069 24.2013 14.0069 23.6161C14.0069 23.2127 14.4417 22.6289 15.2692 22.6289C16.1581 22.6289 17.5017 23.1663 17.7497 23.2397C17.9985 23.3139 18.0997 23.2939 18.2558 23.2219L18.7761 22.9532C18.0854 22.6317 15.6812 21.8049 14.8437 21.8049C14.4474 21.8049 14.2328 21.8619 13.9755 22.1934C13.6541 22.6068 12.7959 22.9839 11.4252 22.9839C10.6739 22.9839 9.59902 22.8498 9.36309 22.7529C8.95039 22.5833 8.14209 22.1143 7.62532 21.7408C6.95887 21.2603 6.37866 20.7272 5.9795 20.1049C5.86425 19.9266 5.80355 19.7185 5.80487 19.5062C5.8063 19.3444 5.85191 19.194 5.86831 19.0749C5.98734 19.2403 6.11636 19.3601 6.28101 19.5147C7.00449 20.219 8.07224 20.7478 9.16992 20.9581C9.48284 21.018 9.76082 21.065 10.0702 21.065C10.5385 21.065 10.9711 20.8141 11.2463 20.5682L10.815 20.0671C10.676 20.1092 10.3881 20.1092 10.1985 20.1092C8.60469 20.1092 6.5818 19.0664 6.11636 17.8611C6.07003 17.7427 6.01443 17.6772 6.06076 17.5674C6.10709 17.4562 6.16483 17.2217 6.19833 17.0057C6.2917 17.1126 6.48415 17.2744 6.72864 17.432C7.32096 17.8119 8.45073 18.3379 8.67169 18.4762C9.2412 18.3123 9.66959 18.1212 10.0082 17.9459C10.4122 17.7337 10.8612 17.6215 11.3175 17.6187C12.4822 17.6187 13.8208 18.283 15.0782 18.9024L15.9364 18.5639C14.8209 17.7798 12.3931 16.6821 11.0438 16.6821C10.2477 16.6821 9.49923 17.2645 8.96607 17.2645C8.31173 17.2645 6.43711 16.3507 6.43711 15.5887C6.43711 15.0028 7.65027 14.6706 9.60116 14.4304C9.26172 14.9322 8.94238 15.4472 8.64389 15.9743L9.1407 16.2502C12.1964 11.8252 15.3747 8.95196 18.0484 7.20136C19.0192 6.56484 19.2409 6.19348 19.5801 5.49923C20.4084 3.80636 21.1896 2.50482 22.5482 2.50482C23.1826 2.50482 23.7008 2.86049 24.0564 3.30242L25.0401 3.59609L24.0443 4.27039L25.0622 4.67454C23.7343 5.04732 21.9195 6.33889 21.1853 8.23418C19.7697 8.30974 19.0869 9.45519 18.6243 10.4153C18.3121 11.0625 17.816 11.3213 17.0925 11.8109L11.3061 15.8446L12.1023 15.9544L17.4482 12.3748C18.5024 11.6634 19.0042 11.1388 19.2565 10.6334C19.7526 9.64194 20.2865 8.90491 21.335 8.90491C21.8504 8.90491 22.4021 9.12588 22.8433 9.54214L23.7806 9.84864L22.757 10.4745L23.6152 11.0012C21.1632 11.7696 19.6429 13.5266 18.7597 16.886L19.4105 17.0335C19.7362 15.9209 20.057 14.9009 20.6315 14.0006C22.0528 13.9842 23.4912 13.9322 24.9032 13.9322C28.671 13.9322 31.7987 14.0911 33.4866 14.588L32.8893 13.5508C31.0831 13.2444 28.4629 13.0854 24.9032 13.0854C23.7093 13.0854 22.5004 13.1296 21.2994 13.1424C22.0742 12.322 23.1904 11.632 24.9089 11.0989L23.6893 10.4274L25.0436 9.67615L23.1982 8.98974C22.8753 8.69964 22.474 8.43377 21.9694 8.30689C22.5596 6.49071 24.5732 5.42937 26.5027 4.69806L25.1513 4.14707L26.5148 3.40079L24.4157 2.73077C23.8675 2.08712 23.3394 1.79346 22.5296 1.79346C20.583 1.79346 19.7648 3.48418 18.9928 4.98246C18.5865 5.77151 18.3292 6.10367 17.6385 6.55629C16.1417 7.53566 14.2328 9.03322 12.411 10.9513C11.4587 10.2649 9.5142 8.25842 8.98531 7.16358C8.77718 7.4209 8.57119 7.98186 8.57119 7.98186C8.77005 8.19213 11.0617 10.5065 11.9127 11.4873L11.7203 11.7026C10.8129 11.8829 8.45429 12.1096 7.65169 12.0005L7.20121 12.8003C7.80067 12.7411 10.1436 12.4653 11.1158 12.4083C10.8179 12.7692 10.5293 13.1379 10.2505 13.5138C7.23685 13.8559 5.22466 14.4739 5.22466 15.5873C5.22466 15.7705 5.29808 15.9786 5.29808 16.1753C5.29808 16.6415 5.12416 16.8126 4.79272 17.0214C4.57674 17.1568 4.5632 17.2516 4.65515 17.3799C4.74781 17.5104 5.21255 18.1975 5.21255 18.3329C5.21255 18.5553 4.99087 18.7798 4.81196 18.9787C4.65515 19.1541 4.66156 19.2004 4.78416 19.4213L5.65804 21.2782L6.58822 21.9496ZM43.8968 11.6128C43.7043 11.8152 43.5347 12.0312 43.3921 12.2607L42.9067 11.5793C44.5276 9.41955 48.8079 8.40597 51.319 8.22777V7.06949C51.0004 7.16786 50.6568 7.27834 50.3389 7.35389C49.8885 7.46224 49.475 7.56274 49.1243 7.55348C48.7737 7.54492 48.4893 7.4045 48.3581 7.21704C48.021 6.73591 48.3339 6.00887 49.4373 5.32887L48.5669 4.6054C47.8955 5.47642 47.234 6.43725 46.5612 7.01105C45.9496 7.5328 45.3088 7.79297 44.7913 7.40664C44.5126 7.19851 44.4079 7.1037 44.3801 6.56056C44.4171 5.76296 44.9025 4.54409 45.3302 3.75932L44.3002 3.63814C44.117 4.8399 43.6245 5.86488 43.097 6.71025C42.4398 7.76517 41.5924 8.50504 40.7199 9.11091L40.1475 8.5471C40.8518 8.13154 41.7335 7.45582 42.3401 6.52421C43.0436 5.44221 43.6145 4.1043 43.6152 2.889L46.5947 3.17127C46.1763 3.70301 45.4856 4.91617 45.2233 5.78719C45.0871 6.24195 45.0936 6.60333 45.2582 6.72664C45.574 6.96329 46.1271 6.58551 46.6638 6.0103C47.4208 5.19701 48.1621 3.9703 48.4893 3.53265L50.644 5.32032C49.686 5.82782 48.758 6.40732 48.9426 6.73306C49.1115 7.02958 49.7252 6.94048 50.3974 6.73448C50.9541 6.56258 51.4901 6.3295 51.9954 6.03952V8.95196C50.9569 8.9377 49.1978 9.13158 47.5035 9.6455C47.9062 10.2143 49.063 10.4232 49.7979 10.5244L49.4294 12.888C47.5748 12.1089 46.1442 11.6556 43.8968 11.6128L44.6402 10.9741C46.2967 11.0083 47.9568 11.4895 48.8977 11.9628L49.0324 11.0682C48.1849 10.9563 47.1171 10.4745 46.6652 9.92847C45.9275 10.2057 45.229 10.5514 44.6402 10.9741L43.8968 11.6128Z" fill="#2D2D2D"/>
<path fill-rule="evenodd" clip-rule="evenodd" d="M35.0183 19.122L35.7083 17.6323C34.8971 16.6725 34.1549 15.6563 33.4873 14.5916L32.89 13.5545C31.51 10.9336 32.0125 9.68121 31.2762 8.52792C30.6675 7.57493 27.7109 8.16796 27.2205 8.27061L28.0758 6.8543L26.3901 6.9883L27.8185 5.29117C27.9746 5.0702 28.048 4.86849 28.2134 4.27973C28.4657 3.38518 29.2341 1.8584 31.4844 1.8584C33.982 1.8584 34.756 3.87914 35.8452 4.75729C37.3322 5.95841 38.7672 7.22262 40.1461 8.54645L40.7185 9.11027C41.4562 9.86439 42.211 10.6399 42.9067 11.5786L43.3921 12.2601C46.3986 16.6494 50.1343 25.0396 51.7859 28.8822C51.9455 29.2535 52.0596 29.6313 52.1586 29.9179C50.912 29.2235 49.7006 28.4675 48.5292 27.6526L47.7879 27.1309C47.3228 26.7957 46.863 26.4533 46.4086 26.1038L45.6467 25.505C45.1883 25.1383 44.7365 24.7633 44.2917 24.3802L45.7949 33.1354C45.9054 33.6507 46.3459 33.5659 46.7016 33.1118C47.0573 32.6578 47.192 32.5338 47.0573 31.9343L45.6467 25.505L46.4086 26.1038L47.7608 31.5665C47.8919 32.0591 48.1001 32.2152 48.676 32.2401C49.2526 32.2651 49.3752 32.0441 49.2526 31.6649L47.7886 27.1309L48.5299 27.6526L49.9155 31.7248C50.2712 32.7676 49.9155 32.8902 49.2904 32.8902C48.6653 32.8902 48.1015 32.7426 47.7579 32.9643C47.4151 33.1845 46.9846 33.7869 46.4699 34.315C46.0152 34.7798 45.3544 34.6586 45.2197 33.7861L43.5582 23.7345C42.4902 22.7792 41.4773 21.764 40.5246 20.6937C40.1 20.5109 39.6787 20.3206 39.2608 20.1228L38.6343 19.8305C38.4864 19.7595 38.3356 19.6945 38.1824 19.6359C37.7226 20.1884 37.2814 20.8042 36.7668 21.2454C36.4931 21.4806 36.3063 21.6146 35.9022 21.6146C35.7775 21.6146 35.6228 21.6132 35.4788 21.5312C35.3248 21.445 35.1801 21.2711 35.0191 21.0259C34.8972 20.8391 34.7168 20.6011 34.5593 20.3366C34.2307 19.7856 33.8765 19.0935 33.5571 18.534C33.1993 17.9046 32.8914 17.4356 32.8493 17.3579C32.7852 17.2381 32.6106 17.0906 32.6106 17.0906C32.4352 17.3764 32.3062 17.9274 32.3062 18.2311L31.6811 18.0194C31.7638 17.6059 31.9298 17.0721 32.0211 16.8147C32.0211 16.5938 31.773 16.2994 31.5706 16.2994C31.2855 16.2994 30.9918 16.6123 30.8443 17.2103L30.2099 17.4862C30.284 16.5204 30.614 15.4633 31.5706 15.4633C32.3433 15.4633 32.8215 16.0521 33.1893 16.6038C33.5564 17.154 34.7617 18.8006 35.0183 19.122L35.4966 19.7279C35.58 20.1064 35.7404 20.3252 35.8181 20.4464C35.9842 20.7037 36.1681 20.6859 36.4161 20.4549C36.5294 20.3509 36.8937 20.0544 37.2465 19.6866C37.553 19.3665 37.8509 18.9781 37.9707 18.7813C38.3214 18.9388 38.975 19.2518 39.501 19.4827C37.2436 16.7014 35.0825 13.3257 34.1452 11.0298C33.7574 10.0811 34.5151 9.76317 34.8808 10.6983C35.8744 13.2366 38.7797 17.7243 40.9131 20.0772C43.3793 22.7986 47.9019 26.736 50.8443 28.3177C50.418 27.4851 49.8542 26.2905 49.2042 24.9056C45.6253 22.8813 42.0079 19.1641 40.3222 15.9708L41.0635 16.0563C42.633 18.8312 46.3808 22.5327 48.5954 23.609C46.5711 19.3131 43.936 13.8681 41.8796 11.5259C39.3285 8.6213 36.543 6.3746 35.2122 5.20563C33.9007 4.05306 33.3604 2.60682 31.4722 2.60682C29.9148 2.60682 29.0965 3.72803 28.7843 4.85993C28.7195 5.08089 28.6831 5.21846 28.527 5.44798L27.7914 6.33112L29.3816 6.13796L28.4614 7.42525C28.4614 7.42525 30.9548 6.86571 31.8279 8.05036C32.7674 9.32767 32.1608 10.7618 33.7033 13.5495C34.3818 14.7748 36.0226 16.978 36.5715 17.4669L35.4959 19.7279L35.0183 19.122ZM10.5128 19.5076L10.1358 19.2518C10.4525 18.9976 10.8018 18.7869 11.1743 18.6252C11.3748 18.543 11.5885 18.4981 11.8051 18.4926C12.2278 18.4926 12.592 18.6694 12.9477 18.859C13.5101 19.1584 14.1416 19.5105 14.6256 19.5105C14.8095 19.5105 14.9877 19.467 15.1958 19.467C15.6748 19.467 16.1346 19.6816 16.3976 19.6816C16.5572 19.6816 16.6677 19.5383 16.7725 19.3879C17.0362 19.008 17.4005 18.7264 17.8659 18.5318C18.3656 18.323 18.9664 18.2396 19.6201 18.2396C20.1347 18.2396 20.6287 18.3137 20.886 18.3693C20.886 18.3693 20.4932 18.8426 20.3949 18.9474C19.8752 18.9474 18.8852 18.9296 18.2494 19.1869C17.8588 19.3444 17.7191 19.5711 17.7191 19.8954C17.7191 20.363 18.2423 20.5469 18.8253 20.7237C19.1689 20.8277 19.5545 20.8534 19.8795 20.8534C20.2801 20.8534 21.0478 20.703 21.8062 20.5362C22.7221 20.3345 23.5732 20.0936 23.8219 20.0016L24.1527 20.5961C23.1334 20.9411 22.0913 21.2682 21.124 21.465C20.5773 21.5761 20.0563 21.6446 19.5916 21.6446C18.8153 21.6446 17.9728 21.3188 17.28 20.9888C16.6955 20.7101 16.1745 20.435 15.7083 20.435C15.1844 20.435 14.6919 20.616 14.2065 20.8933C13.9691 21.0294 13.2528 21.5227 12.6148 21.7729C12.1252 21.9675 11.726 22.0751 11.2299 22.0751C10.788 22.0751 10.5242 22.0124 10.2954 21.8342L11.0638 21.3637C11.1629 21.4614 11.3404 21.4792 11.4501 21.4792C11.5606 21.4792 11.6925 21.465 11.994 21.3402C12.1665 21.2675 12.4174 21.1136 12.5642 21.0188C12.8679 20.8227 12.9684 20.708 13.0881 20.6139C13.3205 20.43 13.406 20.1862 13.1095 19.9218C12.9643 19.7848 12.8063 19.6621 12.6376 19.5554C12.3718 19.3965 12.18 19.2411 11.6996 19.2411C11.1322 19.2389 10.7324 19.395 10.5128 19.5076Z" fill="#2D2D2D"/>
<path fill-rule="evenodd" clip-rule="evenodd" d="M21.2167 19.8127C21.2167 19.8127 20.7598 19.6858 20.6001 19.6737C20.8877 19.2922 21.2356 18.9602 21.6301 18.6907C22.2538 18.2688 22.9067 18.0378 23.8946 17.978C24.1634 17.9616 24.7108 17.9095 25.0166 17.9224C25.2924 17.9352 25.7586 17.953 26.1877 18.0321C26.4913 18.0892 26.7743 18.174 27.0095 18.2103C27.1528 18.2324 27.651 18.2253 27.8242 18.1975C28.5235 18.0877 29.3631 17.8176 29.8051 17.5767L29.9889 18.2488C29.0445 18.7307 27.9775 19.1954 27.001 19.1954C26.5034 19.1954 25.9753 19.1576 25.4827 19.112C24.6146 19.0286 23.8633 18.9131 23.6045 18.9131C22.9017 18.9131 21.8903 19.2403 21.2167 19.8127ZM20.5196 23.5505L19.6315 23.1442C20.8632 22.5205 22.7449 21.8954 23.5169 21.7714C24.2895 21.6502 25.1727 21.5568 25.6809 21.3858C25.914 21.9745 26.3744 22.6039 27.0366 22.6039C27.2782 22.6039 27.6753 22.4215 28.0744 22.2447C28.5228 22.0472 28.9732 21.8313 29.2063 21.7265C29.4586 21.6153 30.2769 21.2561 30.9705 20.9467C31.3174 20.789 31.6622 20.6265 32.0047 20.4592L32.4709 20.7115C32.3312 21.3238 32.0981 22.0772 31.8358 22.616C31.7331 22.8277 31.6305 23.0017 31.52 23.1271C31.3176 23.3552 30.9904 23.6589 30.5635 23.9611C30.0973 24.2925 29.5292 24.6318 28.9262 24.9775C28.4565 25.2491 27.9839 25.5235 27.5049 25.743L27.2561 25.2918C27.9946 24.8741 28.7451 24.3453 29.4052 23.8563C29.7174 23.6253 30.0196 23.3916 30.2356 23.1934C30.396 23.0473 30.4965 22.9261 30.5763 22.8078C30.7723 22.5198 31.0916 21.956 31.1893 21.6859C30.9141 21.8206 29.8721 22.3124 29.4059 22.5562C28.8799 22.8334 28.0267 23.2675 27.5484 23.4942C27.172 23.671 26.8363 23.7686 26.5954 23.7686C26.0615 23.7686 25.8192 23.3844 25.688 23.1521C25.3509 22.5505 24.9895 22.4949 24.0386 22.4828C22.9352 22.4692 21.4213 22.9254 20.5196 23.5505ZM25.703 20.7778C25.703 20.7778 25.574 20.2532 25.5127 20.0621C25.5127 20.0621 25.6659 20.0122 25.8683 20.0122C26.1991 20.0122 27.0166 20.1042 27.3559 20.1042C28.6332 20.1042 29.1044 19.7022 29.4793 19.3636C29.7993 19.0756 30.1279 18.8404 30.9968 18.8404C31.7631 18.8404 32.6426 19.1498 32.8943 19.2717L32.8394 19.9695C32.4256 19.7483 31.9649 19.629 31.4958 19.6216C31.1793 19.6216 30.8942 19.6466 30.6932 19.7514C30.4672 19.8683 30.3297 20.0436 30.1173 20.2175C29.892 20.4029 29.5834 20.5825 29.1792 20.7314C28.7751 20.8804 28.2747 20.9823 27.5284 20.9823C26.5433 20.9809 26.0095 20.8163 25.703 20.7778Z" fill="#2D2D2D"/>
<path fill-rule="evenodd" clip-rule="evenodd" d="M17.6135 26.0452L18.2023 25.8015C18.7419 26.0103 19.5216 26.2469 20.0641 26.2469C20.3905 26.2469 20.66 26.13 20.8816 26.031C21.0556 25.9533 23.0171 24.991 23.9908 24.6375C24.3002 24.5263 24.6145 24.4635 24.767 24.4635C25.0001 24.4635 25.0136 24.5676 25.0792 24.6752C25.2631 24.9689 26.7115 27.036 26.8583 27.195C28.0865 26.8179 29.3445 26.2648 30.0701 25.5691C30.8264 24.8399 31.4544 23.996 32.0609 23.343C32.2947 23.0907 32.5841 22.8626 32.7274 22.7864C33.3554 22.4521 35.3084 22.4243 36.1295 22.4606L35.6427 23.1499C34.1957 23.1499 33.386 23.2989 33.0218 23.5733C32.8678 23.6887 32.6355 23.9225 32.4138 24.2112C31.9198 24.8556 31.3802 25.7373 31.1643 25.9098C31.5877 26.2035 32.051 26.4608 32.7858 26.4608C34.0118 26.4608 34.89 25.6938 35.3711 25.2604L35.7831 25.5056C35.4787 25.9012 35.1302 26.3061 34.6861 26.6083C34.1936 26.9426 33.5728 27.1593 33.2057 27.2612C32.4943 27.1265 30.9276 26.81 30.5605 26.7366C29.2055 27.289 26.9988 28.1814 26.2575 28.4045C26.0935 28.4455 25.9263 28.472 25.7578 28.4837C25.1719 28.5157 24.3572 28.5115 23.6152 28.5029C23.0884 28.4958 22.5902 28.4986 22.34 28.453L21.6864 27.7709C22.263 27.8806 22.4875 27.9141 23.0264 27.9141C24.3016 27.9141 25.122 27.701 25.3929 27.6319C25.6202 27.5734 25.658 27.4423 25.5903 27.2363C25.4827 26.9091 25.2938 26.5983 25.0065 26.2662C24.8103 26.0525 24.5949 25.8573 24.3629 25.6831C24.1875 25.5634 24.0165 25.5327 23.5353 25.6974C23.0891 25.8492 21.7049 26.5983 21.1083 26.9155C20.8132 27.0731 20.5837 27.1187 20.0541 26.9932C19.4931 26.8614 18.1517 26.371 17.6135 26.0452ZM21.4519 10.6825C21.5851 10.6825 21.713 10.6296 21.8072 10.5353C21.9014 10.4411 21.9544 10.3133 21.9544 10.18C21.9544 10.0467 21.9014 9.91891 21.8072 9.82467C21.713 9.73043 21.5851 9.67749 21.4519 9.67749C21.3186 9.67749 21.1908 9.73043 21.0965 9.82467C21.0023 9.91891 20.9494 10.0467 20.9494 10.18C20.9494 10.3133 21.0023 10.4411 21.0965 10.5353C21.1908 10.6296 21.3186 10.6825 21.4519 10.6825Z" fill="#2D2D2D"/>
</svg>
