<svg width="21" height="20" viewBox="0 0 21 20" fill="none" xmlns="http://www.w3.org/2000/svg">
<path d="M17.7579 9.58375C17.758 9.19344 17.726 8.80378 17.6621 8.41873L15.362 7.59812L16.4102 5.39087C15.9527 4.75729 15.3966 4.20116 14.763 3.74366L12.5558 4.79188L11.7352 2.49179C10.9637 2.36398 10.1765 2.36398 9.40512 2.49179L8.58451 4.79188L6.37726 3.74366C5.74368 4.20116 5.18755 4.75729 4.73005 5.39087L5.77827 7.59812L3.47818 8.41873C3.35037 9.19015 3.35037 9.97735 3.47818 10.7488L5.77827 11.5694L4.73005 13.7766C5.18755 14.4102 5.74368 14.9663 6.37726 15.4238L8.58451 14.3756L9.40512 16.6757C10.1765 16.8035 10.9637 16.8035 11.7352 16.6757L12.5558 14.3756L14.763 15.4238C15.3966 14.9663 15.9527 14.4102 16.4102 13.7766L15.362 11.5694L17.6621 10.7488C17.726 10.3637 17.758 9.97406 17.7579 9.58375V9.58375Z" stroke="#AAAAAA"/>
<path d="M10.5702 10.7817C11.2318 10.7817 11.7681 10.2454 11.7681 9.58377C11.7681 8.92215 11.2318 8.3858 10.5702 8.3858C9.90854 8.3858 9.37219 8.92215 9.37219 9.58377C9.37219 10.2454 9.90854 10.7817 10.5702 10.7817Z" stroke="#AAAAAA"/>
</svg>
