<svg width="142" height="35" viewBox="0 0 142 35" fill="none" xmlns="http://www.w3.org/2000/svg">
<path d="M1.53586 7.64693C1.53586 7.64693 4.98863 21.7954 5.53968 24.0919C6.18286 26.7724 7.34174 27.7589 10.683 27.0936L12.839 18.3216C13.3855 16.1427 13.752 14.5893 14.1032 12.3728H14.165C14.4118 14.6111 14.7633 16.1492 15.2129 18.3293C15.2129 18.3293 16.0906 22.3115 16.54 24.4031C16.9907 26.494 18.2448 27.8118 21.5175 27.0944L26.6547 7.64842H22.5071L20.7533 16.0558C20.2817 18.5031 19.8538 20.4153 19.524 22.6541H19.4654C19.1656 20.4376 18.7843 18.6012 18.3049 16.2168L16.4788 7.64842H12.1573L10.2039 16.0009C9.65052 18.539 9.13293 20.5886 8.80378 22.7514H8.74417C8.4071 20.7145 7.95815 18.1387 7.47199 15.6818C7.47199 15.6818 6.31147 9.70765 5.90429 7.64842L1.53626 7.64897L1.53586 7.64693ZM41.0754 7.64693V27.0929H45.0243V22.9636V7.646H41.0754V7.64693ZM96.6923 7.64693V21.9925C96.6923 23.9704 97.0646 25.3561 97.8609 26.2027C98.5567 26.9431 99.7027 27.4226 101.076 27.4226C102.243 27.4226 103.392 27.2012 103.933 26.9995L103.883 23.9135C103.48 24.0127 103.016 24.092 102.382 24.092C101.037 24.092 100.586 23.2305 100.586 21.4545V15.966H104.025V12.2454H100.586V7.64698H96.6921L96.6923 7.64693ZM32.2503 12.1549C29.7962 12.1549 27.8481 12.844 26.7862 13.4576L27.5633 16.1187C28.5351 15.506 30.0826 14.9988 31.5478 14.9988C33.9736 14.9926 34.3702 16.3705 34.3702 17.2542V17.4632C29.0843 17.4553 25.7454 19.2844 25.7454 23.0128C25.7454 25.2892 27.4451 27.4225 30.4006 27.4225C32.22 27.4225 33.7416 26.6969 34.6535 25.5343H34.7429C34.7429 25.5343 35.3467 28.0592 38.6736 27.0937C38.4988 26.0428 38.442 24.9224 38.442 23.573V18.3781C38.442 15.0671 37.0283 12.155 32.2504 12.155L32.2503 12.1549ZM55.8724 12.1549C53.4014 12.1549 52.2909 13.4072 51.6175 14.4697H51.559V12.4847H47.7904V27.0938H51.7604V18.5262C51.7604 18.1245 51.8063 17.6998 51.9465 17.3303C52.2754 16.4677 53.078 15.4587 54.3593 15.4587C55.9612 15.4587 56.7107 16.8129 56.7107 18.7674V27.0936H60.6764V18.4223C60.6764 18.0389 60.729 17.5771 60.8418 17.2381C61.1678 16.2569 62.033 15.4585 63.2241 15.4585C64.848 15.4585 65.6274 16.7892 65.6274 19.089V27.0937H69.5959V18.4894C69.5959 13.9516 67.2918 12.155 64.6908 12.155C63.5389 12.155 62.6297 12.4438 61.8077 12.9485C61.1167 13.3725 60.4982 13.9748 59.9576 14.7681H59.899C59.27 13.1936 57.7942 12.155 55.8718 12.155L55.8724 12.1549ZM77.6726 12.1549C75.219 12.1549 73.2712 12.844 72.2084 13.4576L72.9866 16.1187C73.9575 15.506 75.5059 14.9988 76.9703 14.9988C79.3945 14.9926 79.792 16.3705 79.792 17.2542V17.4632C74.5069 17.4553 71.1676 19.2844 71.1676 23.0128C71.1676 25.2892 72.8682 27.4225 75.8252 27.4225C77.6431 27.4225 79.1652 26.6969 80.0755 25.5343H80.1652C80.1652 25.5343 80.769 28.0592 84.0963 27.0937C83.9213 26.0428 83.8651 24.9224 83.8651 23.573V18.3781C83.8651 15.0671 82.451 12.155 77.6725 12.155L77.6726 12.1549ZM94.1587 12.1549C92.6385 12.1549 90.909 13.1362 90.183 15.2398H90.0721V12.4845H86.4984V27.0936H90.5724V19.6128C90.5724 19.2092 90.5968 18.8574 90.6607 18.5347C90.962 16.9677 92.1606 15.9659 93.8808 15.9659C94.3531 15.9659 94.6911 16.0171 95.0567 16.0699V12.2453C94.7501 12.1833 94.5404 12.1548 94.1589 12.1548L94.1587 12.1549ZM34.4977 20.052V21.8745C34.4977 22.1441 34.4743 22.4223 34.3996 22.6655C34.094 23.6777 33.0454 24.533 31.7346 24.533C30.6418 24.533 29.7736 23.9128 29.7736 22.6007C29.7736 20.5938 31.9828 20.039 34.4978 20.052H34.4977ZM79.92 20.052V21.8745C79.92 22.1441 79.896 22.4223 79.8218 22.6655C79.5162 23.6777 78.468 24.533 77.1572 24.533C76.0641 24.533 75.1958 23.9128 75.1958 22.6007C75.1958 20.5938 77.4051 20.039 79.9201 20.052H79.92Z" fill="#2D2D2D"/>
<path d="M125.377 0.614014C124.102 0.614014 123.089 1.32595 123.089 2.19265L123.863 10.9596C123.948 11.4878 124.595 11.8952 125.378 11.8952C126.161 11.8942 126.806 11.4871 126.893 10.9596L127.671 2.19265C127.671 1.32602 126.655 0.614088 125.378 0.614088L125.377 0.614014ZM112.76 7.64643C112.098 7.66214 111.346 8.16323 110.868 8.99243C110.228 10.0966 110.342 11.3305 111.09 11.7634L119.069 15.479C119.567 15.6644 120.244 15.3104 120.636 14.6346C120.636 14.6345 120.636 14.6343 120.636 14.6342C121.03 13.9551 120.999 13.1915 120.585 12.8528L113.379 7.79848C113.191 7.69009 112.981 7.64131 112.76 7.64654L112.76 7.64643ZM137.994 7.64643C137.773 7.6412 137.563 7.68998 137.376 7.79837L130.169 12.8527C129.757 13.1914 129.727 13.955 130.119 14.6341L130.119 14.6345C130.512 15.3103 131.187 15.6643 131.686 15.4789L139.668 11.7635C140.419 11.3306 140.527 10.0967 139.892 8.99251C139.411 8.16329 138.658 7.66222 137.996 7.64651L137.994 7.64643ZM119.367 19.2132C119.263 19.2118 119.163 19.2277 119.07 19.263L111.091 22.9741C110.343 23.4089 110.229 24.6433 110.869 25.7486C111.507 26.8506 112.631 27.3745 113.379 26.9423L120.586 21.8919C121 21.5491 121.031 20.7857 120.637 20.1072L120.64 20.1087C120.322 19.556 119.814 19.2191 119.367 19.213L119.367 19.2132ZM131.391 19.2132C130.944 19.2192 130.437 19.5562 130.118 20.1088L130.121 20.1073C129.729 20.7858 129.759 21.5492 130.171 21.892L137.378 26.9424C138.125 27.3746 139.25 26.8507 139.891 25.7487C140.526 24.6433 140.419 23.409 139.667 22.9742L131.687 19.2631C131.594 19.2278 131.494 19.2119 131.391 19.2133L131.391 19.2132ZM125.376 22.8465C124.595 22.8475 123.949 23.2531 123.864 23.78L123.09 32.5465C123.09 33.4147 124.103 34.1252 125.378 34.1252C126.655 34.1252 127.67 33.4147 127.67 32.5465L126.894 23.78C126.807 23.2531 126.162 22.8475 125.379 22.8465H125.376H125.376Z" fill="#2D2D2D"/>
</svg>
